<svg id="SvgjsSvg1084" width="550" height="550" xmlns="http://www.w3.org/2000/svg" version="1.1"
    xmlns:xlink="http://www.w3.org/1999/xlink" xmlns:svgjs="http://svgjs.com/svgjs">
    <defs id="SvgjsDefs1085"></defs>
    <g id="SvgjsG1086"><svg xmlns="http://www.w3.org/2000/svg" enable-background="new 0 0 2500 2500"
            viewBox="0 0 2500 2500" width="550" height="550">
            <path fill="#030047" d="M2177.6,2053.93H362.84c-2.03,0-3.68-1.65-3.68-3.68c0-2.03,1.65-3.68,3.68-3.68H2177.6
							c2.03,0,3.68,1.65,3.68,3.68C2181.27,2052.28,2179.63,2053.93,2177.6,2053.93z" class="color030047 svgShape">
            </path>
            <path fill="#ffffff" d="M1140.16,1483.33H315.91c-30.43,0-55.1-24.67-55.1-55.1V690.04c0-30.43,24.67-55.1,55.1-55.1h824.24
									c30.43,0,55.1,24.67,55.1,55.1v738.19C1195.26,1458.66,1170.59,1483.33,1140.16,1483.33z"
                class="colorfff svgShape"></path>
            <path fill="#030047" d="M1140.16,1487.01H315.91c-32.41,0-58.78-26.37-58.78-58.78V690.04c0-32.41,26.37-58.78,58.78-58.78
									h824.24c32.41,0,58.78,26.37,58.78,58.78v738.19C1198.93,1460.64,1172.57,1487.01,1140.16,1487.01z M315.91,638.62
									c-28.35,0-51.42,23.07-51.42,51.42v738.19c0,28.36,23.07,51.42,51.42,51.42h824.24c28.35,0,51.42-23.07,51.42-51.42V690.04
									c0-28.36-23.07-51.42-51.42-51.42H315.91z" class="color030047 svgShape"></path>
            <path fill="#030047" d="M1195.26,718.88v-26.23c0-31.87-25.84-57.71-57.71-57.71H318.52c-31.87,0-57.71,25.84-57.71,57.71
									v26.23H1195.26z" class="color030047 svgShape"></path>
            <path fill="#030047" d="M1195.26,722.56H260.81c-2.03,0-3.68-1.65-3.68-3.68v-26.23c0-33.85,27.54-61.39,61.39-61.39h819.03
									c33.85,0,61.39,27.54,61.39,61.39v26.23C1198.93,720.91,1197.29,722.56,1195.26,722.56z M264.49,715.2h927.09v-22.56
									c0-29.79-24.24-54.03-54.03-54.03H318.52c-29.79,0-54.03,24.24-54.03,54.03V715.2z" class="color030047 svgShape">
            </path>
            <circle cx="325.38" cy="680.62" r="14.32" fill="#ffffff" class="colorfff svgShape"></circle>
            <circle cx="375.88" cy="680.62" r="14.32" fill="#ffffff" class="colorfff svgShape"></circle>
            <circle cx="426.37" cy="680.62" r="14.32" fill="#ffffff" class="colorfff svgShape"></circle>
            <path fill="#030047" d="M379.53,834.95v25.92c0,3.91-3.22,7.07-7.13,7.07h-25.92c-3.91,0-7.07-3.16-7.07-7.07v-25.92
								c0-3.91,3.16-7.07,7.07-7.07h25.92C376.31,827.88,379.53,831.05,379.53,834.95z" class="color030047 svgShape">
            </path>
            <path fill="#ffcc3d" d="M848.79,834.97v25.88c0,3.9-3.22,7.06-7.17,7.06h-421.1c-3.9,0-7.06-3.16-7.06-7.06v-25.88
								c0-3.9,3.16-7.06,7.06-7.06h421.1C845.57,827.91,848.79,831.07,848.79,834.97z" class="colorffcc3d svgShape">
            </path>
            <path fill="#d7e9f2" d="M717.58,1033.19v25.88c0,3.9-3.22,7.06-7.17,7.06h-289.9c-3.9,0-7.06-3.16-7.06-7.06v-25.88
								c0-3.9,3.16-7.06,7.06-7.06h289.9C714.36,1026.12,717.58,1029.29,717.58,1033.19z" class="colord7e9f2 svgShape">
            </path>
            <path fill="#e6f3fc" d="M603.76,1132.3v25.88c0,3.9-3.22,7.06-7.17,7.06H474.35c-3.9,0-7.06-3.16-7.06-7.06v-25.88
								c0-3.9,3.16-7.06,7.06-7.06h122.24C600.54,1125.23,603.76,1128.4,603.76,1132.3z" class="colore6f3fc svgShape">
            </path>
            <path fill="#d7e9f2" d="M700.08,1231.41v25.88c0,3.9-3.22,7.06-7.17,7.06h-256.8c-3.9,0-7.06-3.16-7.06-7.06v-25.88
								c0-3.9,3.16-7.06,7.06-7.06h256.8C696.87,1224.34,700.08,1227.51,700.08,1231.41z" class="colord7e9f2 svgShape">
            </path>
            <path fill="#605efd" d="M943.03,1231.41v25.88c0,3.9-3.22,7.06-7.17,7.06H739.62c-3.9,0-7.06-3.16-7.06-7.06v-25.88
								c0-3.9,3.16-7.06,7.06-7.06h196.23C939.81,1224.34,943.03,1227.51,943.03,1231.41z" class="color605efd svgShape">
            </path>
            <path fill="#ffcc3d" d="M1109.25,1231.41v25.88c0,3.9-3.22,7.06-7.17,7.06H973.15c-3.9,0-7.06-3.16-7.06-7.06v-25.88
								c0-3.9,3.16-7.06,7.06-7.06h128.94C1106.04,1224.34,1109.25,1227.51,1109.25,1231.41z"
                class="colorffcc3d svgShape"></path>
            <path fill="#d7e9f2" d="M1025.8,1132.27v25.88c0,3.9-3.22,7.06-7.17,7.06H635.2c-3.9,0-7.06-3.16-7.06-7.06v-25.88
								c0-3.9,3.16-7.06,7.06-7.06h383.44C1022.59,1125.21,1025.8,1128.37,1025.8,1132.27z" class="colord7e9f2 svgShape">
            </path>
            <path fill="#605efd" d="M848.79,1033.19v25.88c0,3.9-3.22,7.06-7.17,7.06h-91.34c-3.9,0-7.06-3.16-7.06-7.06v-25.88
								c0-3.9,3.16-7.06,7.06-7.06h91.34C845.57,1026.12,848.79,1029.29,848.79,1033.19z" class="color605efd svgShape">
            </path>
            <path fill="#e6f3fc" d="M1116.66,1033.19v25.88c0,3.9-3.21,7.06-7.17,7.06H878.14c-3.9,0-7.06-3.16-7.06-7.06v-25.88
								c0-3.9,3.16-7.06,7.06-7.06h231.35C1113.44,1026.12,1116.66,1029.29,1116.66,1033.19z"
                class="colore6f3fc svgShape"></path>
            <path fill="#ffcc3d" d="M861.26,1330.83v25.88c0,3.9-3.22,7.06-7.17,7.06H490.34c-3.9,0-7.06-3.16-7.06-7.06v-25.88
								c0-3.9,3.16-7.06,7.06-7.06h363.75C858.04,1323.76,861.26,1326.93,861.26,1330.83z" class="colorffcc3d svgShape">
            </path>
            <path fill="#d7e9f2" d="M1029.39,1330.83v25.88c0,3.9-3.21,7.06-7.17,7.06h-114.8c-3.9,0-7.06-3.16-7.06-7.06v-25.88
								c0-3.9,3.16-7.06,7.06-7.06h114.8C1026.17,1323.76,1029.39,1326.93,1029.39,1330.83z"
                class="colord7e9f2 svgShape"></path>
            <path fill="#e6f3fc" d="M621.34,934.08v25.88c0,3.9-3.22,7.06-7.17,7.06H478.39c-3.9,0-7.06-3.16-7.06-7.06v-25.88
								c0-3.9,3.16-7.06,7.06-7.06h135.78C618.13,927.02,621.34,930.18,621.34,934.08z" class="colore6f3fc svgShape">
            </path>
            <path fill="#d7e9f2" d="M951.1,934.08v25.88c0,3.9-3.22,7.06-7.17,7.06H660.77c-3.9,0-7.06-3.16-7.06-7.06v-25.88
								c0-3.9,3.16-7.06,7.06-7.06h283.17C947.89,927.02,951.1,930.18,951.1,934.08z" class="colord7e9f2 svgShape">
            </path>
            <path fill="#605efd" d="M1085.64,834.97v25.88c0,3.9-3.22,7.06-7.12,7.06H884.85c-3.9,0-7.06-3.16-7.06-7.06v-25.88
								c0-3.9,3.16-7.06,7.06-7.06h193.68C1082.43,827.91,1085.64,831.07,1085.64,834.97z" class="color605efd svgShape">
            </path>
            <path fill="#030047"
                d="M379.53 934.06v25.92c0 3.91-3.22 7.07-7.13 7.07h-25.92c-3.91 0-7.07-3.16-7.07-7.07v-25.92c0-3.91 3.16-7.07 7.07-7.07h25.92C376.31 926.99 379.53 930.15 379.53 934.06zM379.53 1033.17v25.92c0 3.91-3.22 7.07-7.13 7.07h-25.92c-3.91 0-7.07-3.16-7.07-7.07v-25.92c0-3.91 3.16-7.07 7.07-7.07h25.92C376.31 1026.1 379.53 1029.26 379.53 1033.17zM379.53 1132.28v25.92c0 3.91-3.22 7.07-7.13 7.07h-25.92c-3.91 0-7.07-3.16-7.07-7.07v-25.92c0-3.91 3.16-7.07 7.07-7.07h25.92C376.31 1125.21 379.53 1128.37 379.53 1132.28zM379.53 1231.39v25.92c0 3.91-3.22 7.07-7.13 7.07h-25.92c-3.91 0-7.07-3.16-7.07-7.07v-25.92c0-3.91 3.16-7.07 7.07-7.07h25.92C376.31 1224.32 379.53 1227.48 379.53 1231.39zM379.53 1330.5v25.92c0 3.91-3.22 7.07-7.13 7.07h-25.92c-3.91 0-7.07-3.16-7.07-7.07v-25.92c0-3.91 3.16-7.07 7.07-7.07h25.92C376.31 1323.43 379.53 1326.59 379.53 1330.5z"
                class="color030047 svgShape"></path>
            <path fill="#ffffff" d="M1347.66,1665.72l-93.44,173.98c-8.22,17.81-20.79,32.77-36.2,43.81
														c-15.41,11.03-33.64,18.14-53.15,20.17c-44.96,4.71-88.31-18.31-109.56-58.23l-159.27-352.26
														c0,0-27.65-67.2-44.67-95.34c-4.71-7.85-7.6-15.21-9.09-21.98c-6.57-29.76,13.14-48.72,18.6-48.72
														c9.63-24.22,26.37-21.7,29.51-20.95c0.37,0.08,0.54,0.12,0.54,0.12c8.22-20.95,31.82-18.64,31.82-18.64l-19.92-86.74
														c-2.73-11.74,2.77-23.85,13.35-29.59c4.09-2.19,8.43-3.22,12.77-3.22c10.29,0,20.17,5.95,24.59,16.12l99.14,228.12
														l76.66,183.94l54.76-73.73L1347.66,1665.72z" class="colorfff svgShape"></path>
            <path fill="#030047" d="M1153.09,1907.98c-42.13,0-80.89-22.97-101.02-60.8L892.69,1494.7
														c-0.33-0.79-27.78-67.37-44.47-94.95c-4.68-7.8-7.88-15.57-9.54-23.1c-5.1-23.12,4.85-38.7,9.37-44.32
														c2.74-3.41,6.57-7,10.14-8.33c9.27-21.38,24.38-22.39,30.51-21.78c6.7-13.49,20.11-17.73,29.39-18.27l-18.87-82.19
														c-3.09-13.28,3.15-27.11,15.18-33.65c4.55-2.43,9.43-3.66,14.53-3.66c12.14,0,23.12,7.19,27.96,18.33l99.14,228.12
														l74.19,178.02l50.9-68.53c0.61-0.82,1.54-1.36,2.56-1.47c1.02-0.12,2.04,0.22,2.81,0.89l163.57,143.15
														c1.29,1.13,1.63,3,0.82,4.51l-93.44,173.98c-8.24,17.86-21.17,33.51-37.3,45.06c-16.18,11.58-35.16,18.79-54.91,20.84
														C1161.17,1907.77,1157.12,1907.98,1153.09,1907.98z M886.08,1309.4c-5.43,0-15.21,2.56-21.79,19.1
														c-0.56,1.4-1.91,2.32-3.42,2.32c-0.82,0.15-4.88,2.6-8.96,8.67c-3.91,5.81-9.89,18.15-6.04,35.57
														c1.48,6.76,4.4,13.79,8.65,20.89c16.97,28.05,43.79,93.08,44.92,95.83l159.22,352.15
														c20.53,38.57,62.1,60.68,105.82,56.08c18.48-1.92,36.25-8.66,51.39-19.5c15.1-10.81,27.2-25.45,35-42.36l92.15-171.6
														l-158.37-138.6l-52.38,70.52c-0.79,1.06-2.09,1.62-3.4,1.46c-1.31-0.16-2.44-1.02-2.95-2.24l-76.66-183.94
														l-99.12-228.07c-3.67-8.44-12-13.9-21.22-13.9c-3.87,0-7.58,0.94-11.03,2.78c-9.1,4.95-13.84,15.44-11.5,25.52
														l19.92,86.75c0.26,1.15-0.04,2.37-0.82,3.25c-0.78,0.89-1.93,1.38-3.12,1.23c-0.84-0.05-20.95-1.72-28.04,16.32
														c-0.67,1.7-2.47,2.67-4.25,2.24l-0.49-0.11C888.95,1309.63,887.71,1309.4,886.08,1309.4z"
                class="color030047 svgShape"></path>
            <path fill="#ffffff" d="M909.52,1391.94c0,0,0.04,51.16-38.47,18.47c0,0-12.11-8.93-28.76-34.55
														c-6.57-29.76,13.14-48.72,18.6-48.72L909.52,1391.94z" class="colorfff svgShape"></path>
            <path fill="#030047" d="M892.84,1425c-6.84,0-14.94-3.94-24.18-11.78c-0.32-0.23-12.64-9.46-29.47-35.35
														c-0.24-0.37-0.41-0.78-0.51-1.21c-5.11-23.13,4.85-38.71,9.37-44.33c3.44-4.29,8.62-8.87,12.82-8.87
														c1.16,0,2.25,0.55,2.94,1.47l48.64,64.8c0.48,0.64,0.74,1.41,0.74,2.2c0,2.59-0.36,25.46-13.66,31.62
														C897.46,1424.51,895.23,1425,892.84,1425z M845.73,1374.42c15.8,24.17,27.38,32.94,27.5,33.03
														c10.13,8.58,18.09,11.79,23.21,9.43c7.21-3.33,9.16-17.29,9.38-23.75l-46.27-61.65c-1.71,1.1-4.66,3.59-7.63,8
														C848.05,1345.23,842.17,1357.34,845.73,1374.42z" class="color030047 svgShape"></path>
            <path fill="#ffcc3d" d="M1317.15,1343.97L1317.15,1343.97c-47.54,6.3-88.82,35.85-110.12,78.81l-60.79,122.62
														l163.99,212.78l90.45-223.52L1317.15,1343.97z" class="colorffcc3d svgShape"></path>
            <path fill="#030047" d="M1310.23,1761.85c-1.13,0-2.21-0.52-2.91-1.43l-163.99-212.78c-0.86-1.12-1.01-2.62-0.38-3.88
														l60.79-122.62c0.9-1.83,3.11-2.56,4.93-1.66c1.82,0.9,2.56,3.11,1.66,4.93l-59.77,120.56l158.67,205.87l88.04-217.57
														c0.76-1.89,2.91-2.79,4.79-2.03c1.88,0.76,2.79,2.91,2.03,4.79l-90.45,223.52c-0.49,1.22-1.61,2.09-2.91,2.27
														C1310.57,1761.84,1310.4,1761.85,1310.23,1761.85z" class="color030047 svgShape"></path>
            <path fill="#ffffff" d="M944.44,1372.85c-0.21-0.08-0.41-0.13-0.58-0.21c-19.88-7.36-52.94-66.33-52.94-66.33
														c8.22-20.95,31.82-18.64,31.82-18.64l41.78,57.45C974.77,1359.17,960.93,1378.51,944.44,1372.85z"
                class="colorfff svgShape"></path>
            <path fill="#030047" d="M950.3,1377.52c-2.34,0-4.71-0.39-7.06-1.2c-0.06-0.02-0.12-0.04-0.18-0.06
														c-0.18-0.07-0.7-0.26-0.83-0.33c-20.21-7.45-51.07-61.67-54.52-67.83c-0.54-0.96-0.62-2.12-0.22-3.15
														c7.31-18.62,26.48-21.87,35.6-20.95c1.05,0.1,2,0.65,2.62,1.49l41.78,57.44c5.7,7.81,5.64,17.93-0.16,25.78
														C963.15,1374.41,956.89,1377.52,950.3,1377.52z M945.71,1369.39c7.08,2.4,12.76-1.02,15.71-5.03
														c2.92-3.96,4.71-10.8,0.13-17.08l-40.75-56.02c-4.87-0.09-19.37,0.98-25.79,14.81c9.77,17.13,35.33,57.64,50.12,63.11
														C945.39,1369.27,945.56,1369.34,945.71,1369.39z" class="color030047 svgShape"></path>
            <path fill="#ffffff" d="M926.79,1394.01c-26.95,10.25-65.92-66.87-65.92-66.87c9.63-24.22,26.37-21.7,29.51-20.95
														C890.38,1306.19,953.5,1383.85,926.79,1394.01z" class="colorfff svgShape"></path>
            <path fill="#030047" d="M921.71,1398.61c-27.97,0-60.27-62.2-64.11-69.82c-0.48-0.94-0.52-2.04-0.14-3.02
														c11.02-27.71,31.48-23.71,33.78-23.17c0.79,0.19,1.49,0.63,2,1.26c5.07,6.23,49.34,61.58,43.21,84.4
														c-1.17,4.37-4.06,7.54-8.35,9.17l0,0C926,1398.24,923.87,1398.61,921.71,1398.61z M864.92,1326.98
														c14.74,28.64,43.49,70.05,60.56,63.58l0,0c2.1-0.8,3.29-2.09,3.86-4.2c4.28-15.94-27.34-59.85-40.97-76.81
														C884.14,1308.91,872.62,1309.16,864.92,1326.98z" class="color030047 svgShape"></path>
            <path fill="#ffffff" d="M1052.79,1412.23l4.28-81.95c0.99-18.9-13.14-35.2-31.99-36.91l-62.19-5.64
														c-6.37-0.58-11.77,4.62-11.44,11.01v0c0.81,15.55,12.15,28.52,27.45,31.41l30.39,5.74l-9.01,15.47
														c-11.84,20.32-16.01,44.2-11.77,67.33l1.19,6.5" class="colorfff svgShape"></path>
            <path fill="#030047" d="M989.71,1428.87c-1.74,0-3.29-1.24-3.61-3.01l-1.19-6.5c-4.4-23.98-0.07-48.78,12.21-69.84
														l6.39-10.97l-25.27-4.77c-17.02-3.21-29.54-17.54-30.44-34.84c-0.21-4.11,1.36-8.1,4.33-10.95
														c2.97-2.85,7.03-4.29,11.12-3.91l62.19,5.64c20.9,1.89,36.42,19.8,35.33,40.76l-4.28,81.95
														c-0.11,2.03-1.87,3.59-3.87,3.48c-2.03-0.11-3.59-1.83-3.48-3.87l4.28-81.95c0.89-17-11.69-31.52-28.64-33.05
														l-62.19-5.64c-1.97-0.21-3.92,0.51-5.35,1.88c-1.43,1.37-2.19,3.3-2.08,5.27c0.73,13.9,10.78,25.41,24.46,27.99
														l30.39,5.73c1.17,0.23,2.17,1,2.66,2.09c0.5,1.09,0.43,2.35-0.17,3.38l-9.01,15.47
														c-11.39,19.54-15.41,42.56-11.33,64.81l1.19,6.5c0.37,2-0.95,3.92-2.95,4.28
														C990.15,1428.85,989.93,1428.87,989.71,1428.87z" class="color030047 svgShape"></path>
            <line x1="1129.33" x2="1146.24" y1="1596.3" y2="1644.46" fill="#fff"></line>
            <path fill="#030047" d="M1146.24,1648.15c-1.52,0-2.94-0.95-3.47-2.46l-16.91-48.17c-0.67-1.92,0.34-4.01,2.25-4.69
														c1.92-0.66,4.02,0.34,4.69,2.26l16.91,48.17c0.67,1.92-0.34,4.01-2.25,4.69
														C1147.06,1648.08,1146.64,1648.15,1146.24,1648.15z" class="color030047 svgShape"></path>
            <path fill="#ffcc3d" d="M1829.19,1439.82c-0.45-44.37-30.15-83.09-72.89-95.05c-53.51-14.98-123.67-32.6-162.64-34.22
																c-69.57-2.89-276.52,33.41-276.52,33.41l-23.04,701.67l541.33,4.61L1829.19,1439.82z"
                class="colorffcc3d svgShape"></path>
            <path fill="#030047" d="M1301.99,1809.15c-2.03,0-3.68-1.65-3.68-3.68v-254.4c0-2.03,1.65-3.68,3.68-3.68
														c2.03,0,3.68,1.65,3.68,3.68v254.4C1305.67,1807.5,1304.02,1809.15,1301.99,1809.15z"
                class="color030047 svgShape"></path>
            <path fill="#ffffff" d="M1578.72,1366.17l44.45-52.45l-27.63-174.16l-155.34,32.37l-5.77,151.17l11.71,22.84
															C1471.87,1396.13,1539.2,1406.4,1578.72,1366.17z" class="colorfff svgShape"></path>
            <path fill="#030047" d="M1520.08,1394.62c-4.43,0-8.89-0.34-13.38-1.02c-27.76-4.23-51.03-20.99-63.84-45.98
															l-11.71-22.84c-0.29-0.56-0.43-1.19-0.4-1.82l5.77-151.18c0.06-1.69,1.27-3.12,2.93-3.46l155.34-32.37
															c0.98-0.21,2.01,0,2.84,0.57c0.83,0.57,1.39,1.46,1.54,2.45l27.63,174.16c0.17,1.06-0.13,2.14-0.83,2.95l-44.45,52.45
															c-0.06,0.07-0.12,0.14-0.18,0.2C1564.85,1385.54,1543.05,1394.62,1520.08,1394.62z M1438.14,1322.28l11.27,21.99
															c11.72,22.86,33.01,38.19,58.4,42.06c25.36,3.86,50.2-4.39,68.19-22.65l43.27-51.06l-26.76-168.68l-148.74,30.99
															L1438.14,1322.28z M1578.72,1366.17h0.05H1578.72z" class="color030047 svgShape"></path>
            <path fill="#ffffff" d="M1595.92,1157.56c33.51-82,12.78-173.02,12.78-173.02l-191.77-59.75
																c-3.6,3.8-106.46,63.34-102.28,199.98c3.43,111.99,94.81,158.73,216.85,108.2" class="colorfff svgShape">
            </path>
            <path fill="#030047"
                d="M1439.8,1256.99c-27.95,0-52.89-6.66-73.51-19.98c-34.63-22.38-53.76-61.16-55.32-112.13
																c-2.5-81.74,33.29-153.07,100.79-200.84c1.31-0.93,2.21-1.55,2.59-1.88c0.96-0.85,2.44-1.28,3.67-0.89l191.77,59.75
																c1.25,0.39,2.2,1.42,2.49,2.7c0.21,0.92,20.6,93.1-12.96,175.23c-0.77,1.88-2.92,2.78-4.8,2.01
																c-1.88-0.77-2.78-2.92-2.01-4.8c29.92-73.21,15.77-154.87,13.02-168.76l-187.87-58.54c-0.44,0.32-0.98,0.7-1.66,1.18
																c-65.42,46.29-100.11,115.4-97.68,194.61c1.48,48.44,19.45,85.16,51.96,106.17c39.46,25.52,96.22,25.07,159.8-1.26
																c1.87-0.76,4.03,0.11,4.81,1.99c0.78,1.88-0.11,4.03-1.99,4.81C1499.7,1250.12,1468.2,1256.99,1439.8,1256.99z"
                class="color030047 svgShape"></path>
            <path fill="#030047" d="M1481.11,879.56c0,0,50.7-34.69,82.36-20.07s12.67,70.63,12.67,70.63s44.54-18.13,79.77,29.46
															c35.22,47.59-32.14,139.79-32.14,139.79l-55.97-20.65c0,0,0.07,9.78-16.35-0.13s-17.29-60.29-35.7-68
															c0,0-137.65,72-222.81-25.87s11.37-166.15,114.58-165.65C1510.74,819.59,1481.11,879.56,1481.11,879.56z"
                class="color030047 svgShape"></path>
            <path fill="#ffffff" d="M1438.02,1075.07c10.1-3.23,21.57,0.5,29.11,9.46" class="colorfff svgShape"></path>
            <path fill="#030047"
                d="M1467.13 1088.21c-1.05 0-2.09-.45-2.82-1.31-6.59-7.85-16.47-11.1-25.17-8.33-1.93.62-4-.45-4.62-2.38-.62-1.94.45-4 2.38-4.62 11.55-3.72 24.52.46 33.04 10.6 1.31 1.56 1.11 3.87-.45 5.18C1468.81 1087.93 1467.97 1088.21 1467.13 1088.21zM1371.59 1092.06c-1.28 8.08-6.75 13.96-12.23 13.1-5.43-.87-8.81-8.17-7.48-16.29 1.32-8.12 6.8-14.01 12.23-13.14C1369.58 1076.64 1372.91 1083.94 1371.59 1092.06zM1454.45 1106.85c-1.32 8.12-6.8 13.96-12.27 13.09-5.43-.86-8.76-8.17-7.48-16.29 1.32-8.12 6.8-14.01 12.27-13.09C1452.4 1091.42 1455.73 1098.72 1454.45 1106.85z"
                class="color030047 svgShape"></path>
            <path fill="#ffffff" d="M1355.19,1060.28c10.1-3.23,21.57,0.5,29.11,9.47" class="colorfff svgShape"></path>
            <path fill="#030047" d="M1384.3,1073.42c-1.05,0-2.09-0.45-2.82-1.31c-6.59-7.84-16.47-11.12-25.17-8.32
																c-1.93,0.61-4.01-0.45-4.62-2.39c-0.62-1.94,0.45-4,2.38-4.63c11.56-3.68,24.53,0.47,33.04,10.6
																c1.31,1.56,1.11,3.88-0.45,5.18C1385.98,1073.14,1385.14,1073.42,1384.3,1073.42z"
                class="color030047 svgShape"></path>
            <path fill="#ffffff" d="M1565.52,1080.19c0,0,44.51-47.11,70.43-38.77s18.82,99.06-11.41,108.4
																c-30.23,9.35-55.1-2.02-55.1-2.02" class="colorfff svgShape"></path>
            <path fill="#030047" d="M1599.88,1157.22c-18.4,0-31.22-5.72-31.97-6.06c-1.85-0.85-2.66-3.02-1.82-4.87
																c0.84-1.85,3.02-2.67,4.87-1.82c0.24,0.11,24.06,10.66,52.49,1.85c15.29-4.73,24.58-35.45,24.73-62.42
																c0.12-21.02-5.13-36.32-13.36-38.97c-19.45-6.26-54.69,25.17-66.63,37.8c-1.4,1.47-3.72,1.53-5.2,0.14
																c-1.48-1.39-1.54-3.72-0.15-5.2c1.88-1.99,46.42-48.7,74.23-39.75c11.71,3.77,18.61,20.97,18.47,46.02
																c-0.17,29.95-10.5,63.4-29.92,69.41C1616.38,1156.21,1607.63,1157.22,1599.88,1157.22z"
                class="color030047 svgShape"></path>
            <path fill="#030047" d="M1619.59,1110.97c-0.48,0-0.97-0.09-1.44-0.29c-1.87-0.8-2.74-2.96-1.95-4.82
															c2.19-5.15,3.32-10.83,3.29-16.42c-0.02-3.23-0.64-5.36-1.85-6.33c-0.85-0.68-2.26-0.92-3.66-0.61
															c-1.45,0.32-2.99,1.15-4.7,2.54c-2.52,2.06-4.64,4.68-6.12,7.59c-0.92,1.81-3.14,2.52-4.95,1.6
															c-1.81-0.92-2.53-3.14-1.6-4.95c1.94-3.81,4.72-7.25,8.03-9.94c2.62-2.14,5.16-3.46,7.77-4.03
															c3.58-0.78,7.25-0.02,9.84,2.05c3.07,2.46,4.58,6.39,4.61,12.03c0.04,6.59-1.3,13.28-3.87,19.35
															C1622.38,1110.13,1621.02,1110.97,1619.59,1110.97z" class="color030047 svgShape"></path>
            <path fill="#ffffff" d="M1397.47,1110.27c-2.52,11.61-5.03,23.23-7.55,34.84c-1.52,7-3.03,14.28-0.91,20.91
															c2.12,6.63,8.98,12.44,17.35,11.83" class="colorfff svgShape"></path>
            <path fill="#030047"
                d="M1405.12 1181.57c-9.85 0-17.25-7.08-19.61-14.44-2.46-7.69-.72-15.72.82-22.81l7.55-34.84c.43-1.98 2.4-3.2 4.37-2.82 1.99.43 3.25 2.39 2.82 4.38l-7.55 34.84c-1.34 6.18-2.86 13.19-1 19.01 1.56 4.87 6.85 9.78 13.58 9.28 2.03-.07 3.79 1.37 3.94 3.4.15 2.03-1.38 3.79-3.4 3.94C1406.12 1181.55 1405.62 1181.57 1405.12 1181.57zM1445.49 1204.18c-2.01 0-3.66-1.62-3.68-3.64-.02-2.03 1.61-3.69 3.64-3.72 6.37-.07 12.74-2.54 17.48-6.79 4.74-4.25 7.9-10.31 8.67-16.63.24-2.02 2.08-3.46 4.09-3.21 2.02.24 3.45 2.07 3.21 4.09-.98 8.07-5.01 15.81-11.06 21.23-6.05 5.42-14.19 8.58-22.31 8.67C1445.51 1204.18 1445.5 1204.18 1445.49 1204.18z"
                class="color030047 svgShape"></path>
            <g opacity=".4" fill="#000000" class="color000 svgShape">
                <path fill="#ffffff"
                    d="M1474.29,1629.27c-0.36,0-0.72-0.05-1.08-0.16c-10.37-3.19-18.88-9.89-23.36-18.38
									c-3.37-6.38-4.14-13.37-2.18-19.7c0.91-2.91,2.29-5.6,3.62-8.21c1.2-2.34,2.33-4.56,3.06-6.77
									c0.7-2.15,1.85-7.48-2.56-10.59c-2.55-1.81-6.36-2.59-10.39-3.42c-1.96-0.4-3.92-0.81-5.79-1.33
									c-13.35-3.74-22.64-14.04-22.6-25.06c0.04-11.02,9.41-21.28,22.78-24.95c1.96-0.52,3.98,0.62,4.52,2.58
									c0.54,1.96-0.61,3.98-2.57,4.52c-10.04,2.75-17.34,10.27-17.37,17.88c-0.03,7.6,7.21,15.15,17.22,17.95
									c1.71,0.48,3.5,0.84,5.3,1.21c4.59,0.94,9.34,1.92,13.16,4.62c5.74,4.06,7.78,11.29,5.31,18.88
									c-0.91,2.78-2.23,5.35-3.51,7.85c-1.25,2.43-2.43,4.73-3.14,7.04c-1.4,4.5-0.83,9.37,1.66,14.08
									c3.57,6.77,10.51,12.16,19.02,14.78c1.94,0.6,3.03,2.66,2.43,4.6C1477.32,1628.25,1475.86,1629.27,1474.29,1629.27z"
                    class="colorfff svgShape"></path>
            </g>
            <g opacity=".4" fill="#000000" class="color000 svgShape">
                <path fill="#ffffff" d="M1336.36,1467.52c-0.36,0-0.72-0.05-1.08-0.16c-5.34-1.64-9.73-5.12-12.07-9.54
									c-1.82-3.44-2.23-7.25-1.16-10.7c0.47-1.52,1.16-2.85,1.82-4.14c0.49-0.95,0.99-1.89,1.31-2.88
									c0.29-0.89,0.45-2.09-0.46-2.74c-0.86-0.6-2.51-0.95-4.11-1.27c-0.96-0.2-1.92-0.4-2.84-0.66
									c-7.08-1.98-12.01-7.57-11.98-13.6c0.02-6.02,4.99-11.59,12.08-13.54c1.96-0.52,3.98,0.62,4.52,2.58
									c0.54,1.96-0.61,3.98-2.57,4.52c-3.79,1.04-6.66,3.82-6.67,6.47c-0.01,2.64,2.83,5.43,6.61,6.49
									c0.76,0.22,1.55,0.37,2.34,0.54c2.23,0.46,4.76,0.98,6.88,2.48c3.41,2.41,4.64,6.63,3.21,11.03
									c-0.47,1.45-1.13,2.72-1.76,3.96c-0.54,1.06-1.05,2.05-1.34,2.96c-0.63,2.02,0,3.88,0.64,5.09c1.41,2.67,4.3,4.89,7.72,5.94
									c1.94,0.6,3.03,2.65,2.43,4.6C1339.39,1466.51,1337.93,1467.52,1336.36,1467.52z" class="colorfff svgShape">
                </path>
            </g>
            <g opacity=".4" fill="#000000" class="color000 svgShape">
                <path fill="#ffffff" d="M1263.03,1587.98c-0.46,0-0.94-0.09-1.39-0.27c-8.66-3.54-15.25-9.74-18.06-16.99
									c-1.99-5.13-1.9-10.27,0.28-14.86c1.02-2.16,2.4-4.06,3.73-5.9c1.14-1.58,2.22-3.07,2.96-4.56c0.96-1.94,1.57-4.7-0.97-6.79
									c-1.82-1.49-4.79-2.41-7.93-3.39c-1.56-0.48-3.13-0.97-4.61-1.53c-10.81-4.12-17.65-13.01-16.62-21.61
									c1.03-8.59,9.76-15.65,21.24-17.16c2.01-0.29,3.86,1.15,4.13,3.17c0.26,2.01-1.15,3.86-3.17,4.12
									c-7.88,1.04-14.29,5.66-14.89,10.74c-0.61,5.08,4.53,11.04,11.94,13.86c1.34,0.51,2.75,0.95,4.16,1.38
									c3.68,1.14,7.49,2.31,10.43,4.73c4.67,3.85,5.78,9.87,2.9,15.72c-1.01,2.05-2.33,3.87-3.6,5.63
									c-1.19,1.64-2.31,3.19-3.04,4.73c-1.63,3.43-0.93,6.81-0.07,9.04c2.06,5.3,7.29,10.11,13.99,12.85
									c1.88,0.77,2.78,2.92,2.01,4.8C1265.85,1587.11,1264.48,1587.98,1263.03,1587.98z" class="colorfff svgShape">
                </path>
            </g>
            <g opacity=".4" fill="#000000" class="color000 svgShape">
                <path fill="#ffffff"
                    d="M1474.29,1980.63c-0.28,0-0.56-0.03-0.85-0.1c-11.59-2.73-20.87-8.91-24.82-16.54
									c-2.4-4.64-2.69-9.47-0.86-13.99c0.95-2.35,2.37-4.45,3.73-6.49c1.17-1.74,2.28-3.39,2.95-4.98
									c1.23-2.88,0.45-5.09-2.3-6.58c-2.63-1.42-6.67-2.05-10.59-2.67c-1.94-0.31-3.89-0.61-5.75-1.01
									c-13.48-2.87-22.86-11.12-22.82-20.04c0.05-8.91,9.51-17.11,23-19.94c1.99-0.4,3.94,0.86,4.36,2.85
									c0.42,1.99-0.86,3.94-2.85,4.35c-9.75,2.04-17.13,7.53-17.15,12.77c-0.03,5.23,7.28,10.73,17,12.81
									c1.73,0.37,3.54,0.65,5.35,0.93c4.53,0.71,9.21,1.45,12.94,3.46c6.11,3.3,8.29,9.56,5.57,15.94
									c-0.95,2.23-2.31,4.25-3.61,6.2c-1.21,1.81-2.36,3.51-3.03,5.15c-1.01,2.5-0.82,5.13,0.58,7.84
									c2.93,5.66,10.58,10.55,19.96,12.76c1.98,0.46,3.2,2.45,2.74,4.43C1477.47,1979.49,1475.96,1980.63,1474.29,1980.63z"
                    class="colorfff svgShape"></path>
            </g>
            <g opacity=".4" fill="#000000" class="color000 svgShape">
                <path fill="#ffffff" d="M1573.88,1876.85c-0.36,0-0.72-0.05-1.08-0.16c-7.9-2.43-14.4-7.55-17.83-14.04
									c-2.61-4.94-3.2-10.36-1.68-15.28c0.69-2.23,1.73-4.26,2.74-6.22c0.87-1.69,1.69-3.29,2.2-4.86
									c0.45-1.38,1.2-4.81-1.53-6.74c-1.73-1.22-4.44-1.78-7.32-2.37c-1.47-0.3-2.94-0.61-4.34-1
									c-10.28-2.87-17.43-10.86-17.39-19.44c0.03-8.57,7.24-16.53,17.54-19.36c1.96-0.51,3.98,0.62,4.52,2.58
									c0.54,1.96-0.62,3.99-2.58,4.52c-7.01,1.92-12.1,7.09-12.13,12.29c-0.02,5.19,5.03,10.37,12.02,12.32
									c1.24,0.35,2.54,0.61,3.84,0.88c3.49,0.71,7.1,1.46,10.09,3.57c4.6,3.25,6.24,9.01,4.28,15.03
									c-0.69,2.13-1.69,4.07-2.65,5.94c-0.9,1.75-1.75,3.42-2.26,5.04c-0.96,3.08-0.56,6.42,1.16,9.67
									c2.52,4.78,7.44,8.59,13.48,10.45c1.94,0.6,3.03,2.65,2.43,4.6C1576.91,1875.84,1575.45,1876.85,1573.88,1876.85z"
                    class="colorfff svgShape"></path>
            </g>
            <g opacity=".4" fill="#000000" class="color000 svgShape">
                <path fill="#ffffff"
                    d="M1375.8,1835.73c-1.45,0-2.83-0.86-3.41-2.29c-4.09-10.05-4.3-20.88-0.56-29.72
									c2.81-6.64,7.74-11.67,13.87-14.15c2.83-1.14,5.78-1.78,8.64-2.39c2.57-0.55,5.01-1.07,7.19-1.92
									c2.11-0.82,6.96-3.3,6.58-8.69c-0.22-3.12-2.02-6.57-3.93-10.21c-0.93-1.77-1.85-3.54-2.63-5.33
									c-5.56-12.7-3.46-26.41,5.11-33.36c8.56-6.94,22.43-6.18,33.73,1.85c1.65,1.18,2.04,3.47,0.87,5.13
									c-1.18,1.66-3.47,2.05-5.13,0.87c-8.48-6.03-18.93-6.93-24.84-2.14c-5.91,4.79-7.17,15.17-3,24.69
									c0.71,1.62,1.56,3.24,2.41,4.86c2.18,4.16,4.43,8.45,4.75,13.11c0.49,7.02-3.82,13.17-11.26,16.06
									c-2.73,1.06-5.56,1.67-8.31,2.26c-2.67,0.57-5.19,1.11-7.43,2.02c-4.37,1.77-7.78,5.29-9.85,10.19
									c-2.98,7.06-2.77,15.83,0.59,24.08c0.77,1.88-0.14,4.03-2.02,4.79C1376.74,1835.64,1376.26,1835.73,1375.8,1835.73z"
                    class="colorfff svgShape"></path>
            </g>
            <g opacity=".4" fill="#000000" class="color000 svgShape">
                <path fill="#ffffff" d="M1550.52,1500.58c-1.74,0-3.29-1.24-3.61-3.01c-2.08-11.32-0.08-22.29,5.35-29.34
									c3.55-4.61,8.27-7.27,13.64-7.69c2.68-0.22,5.33,0.11,7.91,0.41c2.24,0.27,4.36,0.53,6.26,0.4
									c2.54-0.15,5.66-1.22,6.08-5.43c0.3-3-0.71-6.77-1.79-10.77c-0.51-1.91-1.03-3.82-1.41-5.69
									c-2.8-13.52,1.32-25.73,10.01-29.7c8.67-3.98,20.64,0.89,29.09,11.82c1.24,1.61,0.95,3.92-0.66,5.16
									c-1.61,1.24-3.92,0.95-5.16-0.66c-6.14-7.95-14.83-12.07-20.21-9.63c-5.37,2.45-7.89,11.7-5.86,21.51
									c0.36,1.73,0.84,3.5,1.31,5.27c1.2,4.45,2.45,9.07,2.01,13.42c-0.7,6.98-5.66,11.6-12.95,12.04
									c-2.56,0.15-5.11-0.14-7.58-0.44c-2.32-0.28-4.52-0.55-6.47-0.38c-4.09,0.31-6.81,2.8-8.38,4.84
									c-4.18,5.43-5.65,14.22-3.94,23.52c0.37,2-0.95,3.92-2.95,4.28C1550.96,1500.56,1550.74,1500.58,1550.52,1500.58z"
                    class="colorfff svgShape"></path>
            </g>
            <g opacity=".4" fill="#000000" class="color000 svgShape">
                <path fill="#ffffff" d="M1742.67,1527.7c-0.02,0-0.04,0-0.07,0c-7.98-0.14-15.19-3.05-19.29-7.77
									c-2.77-3.19-3.98-6.94-3.5-10.84c0.23-1.89,0.81-3.64,1.36-5.33c0.45-1.37,0.87-2.66,1.03-3.8
									c0.37-2.62-1.26-3.13-1.87-3.31c-1.7-0.53-4.28-0.36-6.78-0.2c-1.39,0.09-2.75,0.23-4.12,0.17
									c-9.67,0-17.5-4.67-19.06-11.38c-1.57-6.73,3.44-14.44,12.17-18.75c1.82-0.91,4.03-0.15,4.93,1.67
									c0.9,1.82,0.15,4.03-1.67,4.93c-6.01,2.96-8.92,7.66-8.26,10.48c0.66,2.83,5.37,5.72,12.01,5.69c1.16,0,2.35-0.08,3.54-0.16
									c3.16-0.2,6.44-0.4,9.42,0.51c4.99,1.55,7.74,6.01,6.99,11.36c-0.25,1.8-0.8,3.47-1.33,5.09c-0.47,1.41-0.91,2.75-1.05,3.93
									c-0.22,1.8,0.37,3.53,1.75,5.12c2.71,3.13,8.03,5.13,13.87,5.24c2.03,0.04,3.65,1.71,3.61,3.75
									C1746.31,1526.09,1744.67,1527.7,1742.67,1527.7z" class="colorfff svgShape"></path>
            </g>
            <g opacity=".4" fill="#000000" class="color000 svgShape">
                <path fill="#ffffff" d="M1560.06,1693.85c-2.13,0-4.22-0.31-6.13-0.87c-6.8-1.99-12.35-6.64-17.25-10.74
									c-1.56-1.31-1.76-3.63-0.46-5.18c1.31-1.57,3.62-1.76,5.18-0.46c4.56,3.82,9.27,7.77,14.59,9.33
									c4.16,1.21,9.96,0.65,12.84-3.47c2.83-4.04,2.39-10.22,1.95-16.19l-0.04-0.54c-0.51-7.1-0.33-15.95,5.65-21.37
									c5.58-5.07,13.47-4.3,18.92-3.28c1.93,0.36,3.85,0.77,5.77,1.18c4.7,1,9.15,1.95,13.65,2.2c4.77,0.27,11.55-0.24,16.74-4.28
									c4.02-3.13,7.24-9.33,5.63-15.1c-0.55-1.95,0.6-3.99,2.56-4.53c1.95-0.54,3.99,0.6,4.53,2.56
									c2.22,7.97-1.15,17.39-8.19,22.88c-5.53,4.31-13.03,6.32-21.68,5.82c-5.07-0.29-10-1.34-14.76-2.35
									c-1.86-0.4-3.73-0.8-5.59-1.14c-6.29-1.17-10.19-0.71-12.63,1.49c-3.67,3.32-3.61,10.37-3.25,15.39l0.04,0.54
									c0.5,6.92,1.07,14.76-3.26,20.94C1571.26,1691.81,1565.53,1693.85,1560.06,1693.85z" class="colorfff svgShape">
                </path>
            </g>
            <g opacity=".4" fill="#000000" class="color000 svgShape">
                <path fill="#ffffff"
                    d="M1708.16,1864.16c-0.65,0-1.3-0.17-1.89-0.53c-7.09-4.27-11.11-13.43-9.76-22.26
									c1.06-6.93,5.12-13.54,11.75-19.13c3.88-3.27,8.17-5.89,12.33-8.43c1.63-1,3.26-1.99,4.87-3.03
									c5.39-3.47,7.9-6.48,8.15-9.76c0.38-4.93-4.5-10.03-8.21-13.43l-0.4-0.36c-5.12-4.68-10.91-9.99-12.01-17.45
									c-1.27-8.61,4.55-15.72,10.88-18.97c6.31-3.23,13.54-3.65,19.92-4.04c2.04-0.18,3.77,1.43,3.89,3.45
									c0.12,2.03-1.43,3.77-3.45,3.89c-5.93,0.35-12.07,0.71-17,3.24c-3.86,1.97-7.68,6.37-6.95,11.34
									c0.72,4.88,5.29,9.06,9.7,13.1l0.4,0.37c5.25,4.81,11.2,11.37,10.57,19.41c-0.58,7.52-6.84,12.38-11.5,15.38
									c-1.65,1.06-3.34,2.09-5.02,3.12c-4.1,2.5-7.97,4.86-11.42,7.77c-3.66,3.08-8.23,8.12-9.22,14.61
									c-0.77,5.03,1.14,11.75,6.28,14.84c1.74,1.05,2.3,3.31,1.25,5.05C1710.63,1863.53,1709.41,1864.16,1708.16,1864.16z"
                    class="colorfff svgShape"></path>
            </g>
            <g fill="#000000" class="color000 svgShape">
                <path fill="#000028" d="M841.82,1990.88v59.37h433.25c13.94,0,25.21-11.28,25.21-25.21v-2.42c0-17.52-14.22-31.74-31.7-31.74
								H841.82z" class="color000028 svgShape"></path>
                <path fill="#030047" d="M593.18,1708.23h387.35c20.86,0,39.47,13.11,46.49,32.74l110.67,309.27H709.14
								c-25.48,0-48.21-16.01-56.79-40l-91.59-255.96C552.72,1731.84,569.36,1708.23,593.18,1708.23z"
                    class="color030047 svgShape"></path>
            </g>
            <g fill="#000000" class="color000 svgShape">
                <path fill="#ffffff" d="M787.42,1879.23c3,18.76,20.62,33.97,39.38,33.97c18.8,0,31.56-15.21,28.56-33.97
							c-3-18.76-20.66-33.97-39.42-33.97C797.18,1845.26,784.42,1860.47,787.42,1879.23z" class="colorfff svgShape">
                </path>
            </g>
            <g fill="#000000" class="color000 svgShape">
                <path fill="#ffffff" d="M1922.28,2005.25c-22.64,27.9-56.5,43.67-91.69,43.67c-7.3,0-14.65-0.7-22-2.09l-243.82-97.57
									c-31.71-0.86-81.23,7.65-81.23,7.65c-23.61,11.11-51.77-0.75-51.77-0.75c-28.22,14.75-44.96-1.77-44.96-1.77
									c-28.22-0.7-39.33-14.38-39.33-14.38c-29.19,22.21-47.86,1.4-47.86,1.4c-24.2,19.1-40.83,8.48-43.62-10.19
									c-2.79-18.67,62.77-115.94,105.8-138.64c43.08-22.69,170.88-9.12,170.88-9.12l231.17,53.64l-53-221.53l182.88-59.48
									l52.04,348.89C1953.66,1940.28,1945.03,1977.19,1922.28,2005.25z" class="colorfff svgShape"></path>
                <path fill="#030047" d="M1830.58,2052.61c-7.5,0-15.13-0.73-22.68-2.16c-0.23-0.05-0.46-0.11-0.68-0.2l-243.21-97.33
									c-29.35-0.7-74.26,6.69-79.38,7.54c-21.65,9.91-46.15,2.14-52.67-0.27c-25.51,12.58-42.17,1.45-46.59-2.16
									c-21.54-0.84-33.48-8.98-38.26-13.2c-23.89,16.57-41.38,6.36-47.68,1.34c-14.67,10.65-25.3,10-31.75,7.45
									c-8.14-3.23-13.73-11.19-15.32-21.86c-3.11-20.83,63.63-119.18,107.72-142.43c43.57-22.96,167.72-10.08,172.99-9.53
									l225.82,52.36l-51.62-215.74c-0.45-1.87,0.62-3.76,2.44-4.35l182.88-59.48c1.03-0.34,2.15-0.2,3.07,0.37
									c0.92,0.57,1.54,1.51,1.7,2.59l52.04,348.89c8.13,36.36-0.7,74.05-24.28,103.14c0,0,0,0,0,0
									C1901.9,2036.19,1867.44,2052.61,1830.58,2052.61z M1809.62,2043.29c41.9,7.82,83.61-8.08,109.8-40.35h0
									c22.16-27.33,30.45-62.75,22.77-97.16l-51.45-344.85l-175.51,57.08l52.21,218.22c0.3,1.24-0.07,2.54-0.97,3.45
									s-2.2,1.27-3.44,0.99l-231.17-53.63c-0.83-0.06-126.74-13.12-168.34,8.79c-43.05,22.71-106.24,119.04-103.88,134.84
									c1.2,8.01,5.12,13.88,10.76,16.11c7.08,2.82,16.65-0.12,26.94-8.26c1.52-1.2,3.72-1.01,5.02,0.43
									c0.67,0.73,16.9,17.9,42.89-1.87c1.58-1.21,3.83-0.93,5.08,0.61c0.09,0.11,10.62,12.38,36.56,13.02
									c0.94,0.02,1.83,0.4,2.49,1.06c0.6,0.58,15.35,14.38,40.67,1.13c0.97-0.51,2.12-0.55,3.13-0.13
									c0.27,0.11,26.98,11.05,48.79,0.81c0.3-0.14,0.62-0.24,0.94-0.3c2.04-0.35,50.22-8.59,81.95-7.71
									c0.43,0.01,0.86,0.1,1.27,0.26L1809.62,2043.29z M1922.28,2005.26h0.05H1922.28z" class="color030047 svgShape">
                </path>
                <line x1="1299.64" x2="1327.84" y1="1941.4" y2="1902.78" fill="#fff"></line>
                <path fill="#030047" d="M1299.63,1945.07c-0.75,0-1.51-0.23-2.17-0.71c-1.64-1.2-2-3.5-0.8-5.14l28.2-38.61
									c1.2-1.64,3.5-2,5.14-0.8c1.64,1.2,2,3.5,0.8,5.14l-28.2,38.61C1301.89,1944.55,1300.77,1945.07,1299.63,1945.07z"
                    class="color030047 svgShape"></path>
                <path fill="#ffffff" d="M1347.46,1940.02c0,0-18.21-24.32-20.11-36.37c-3.09-19.6,34.71-54.07,34.71-54.07"
                    class="colorfff svgShape"></path>
                <path fill="#030047" d="M1347.46,1943.7c-1.12,0-2.22-0.51-2.95-1.48c-0.77-1.02-18.78-25.2-20.8-38
									c-3.3-20.96,31.85-53.7,35.87-57.36c1.5-1.38,3.83-1.26,5.2,0.23c1.37,1.5,1.26,3.83-0.24,5.2
									c-10.11,9.23-35.83,36.33-33.56,50.79c1.44,9.13,14.5,28.17,19.42,34.74c1.22,1.62,0.89,3.93-0.74,5.15
									C1349,1943.46,1348.23,1943.7,1347.46,1943.7z" class="color030047 svgShape"></path>
                <path fill="#ffffff"
                    d="M1386.81,1954.37c0,0-18.36-10.88-18.83-33.72c-0.46-22.84,27.78-73.45,27.78-73.45"
                    class="colorfff svgShape"></path>
                <path fill="#030047" d="M1386.8,1958.05c-0.64,0-1.28-0.16-1.87-0.51c-0.82-0.49-20.13-12.2-20.63-36.8
									c-0.48-23.57,27.07-73.22,28.24-75.32c0.99-1.78,3.23-2.41,5.01-1.42c1.77,0.99,2.41,3.23,1.42,5.01
									c-0.28,0.5-27.75,50.01-27.31,71.58c0.42,20.55,16.86,30.53,17.02,30.63c1.75,1.03,2.33,3.29,1.29,5.04
									C1389.29,1957.41,1388.06,1958.05,1386.8,1958.05z" class="color030047 svgShape"></path>
                <path fill="#ffffff" d="M1431.77,1956.15c0,0-14.81-7.77-14.81-26.44c0-18.67,26.08-56.01,26.08-56.01"
                    class="colorfff svgShape"></path>
                <path fill="#030047" d="M1431.76,1959.83c-0.57,0-1.16-0.13-1.7-0.42c-0.68-0.36-16.78-9.04-16.78-29.7
									c0-19.6,25.65-56.55,26.74-58.12c1.17-1.66,3.46-2.06,5.12-0.91c1.67,1.16,2.07,3.46,0.91,5.13
									c-7.07,10.13-25.42,39.55-25.42,53.9c0,16.11,12.33,22.91,12.86,23.2c1.78,0.95,2.47,3.18,1.52,4.97
									C1434.35,1959.11,1433.08,1959.83,1431.76,1959.83z" class="color030047 svgShape"></path>
                <path fill="#ffffff" d="M1484.18,1956.15c0,0,31.63-21.29,36.11-36.88c4.47-15.59,2.93-27.93-11.11-23.15
									s-21.91,18.05-21.91,18.05" class="colorfff svgShape"></path>
                <path fill="#030047" d="M1484.18,1959.83c-1.18,0-2.34-0.57-3.05-1.62c-1.13-1.69-0.69-3.97,1-5.11
									c8.49-5.72,31.26-23.13,34.63-34.85c3.18-11.07,2.22-16.98,0.44-18.68c-1.47-1.39-4.52-0.75-6.83,0.03
									c-12.53,4.26-19.87,16.33-19.94,16.45c-1.04,1.74-3.3,2.3-5.04,1.27c-1.74-1.04-2.32-3.29-1.28-5.03
									c0.35-0.59,8.74-14.5,23.89-19.66c7.66-2.62,11.99-0.57,14.27,1.6c5.86,5.58,4.09,17.24,1.56,26.04
									c-4.79,16.68-36.25,38.02-37.59,38.92C1485.6,1959.62,1484.89,1959.83,1484.18,1959.83z"
                    class="color030047 svgShape"></path>
                <g fill="#000000" class="color000 svgShape">
                    <path fill="#ffcc3d" d="M1714.55,1333.53l70.65,18.68c47.81,13.86,85.42,50.89,100.02,98.48l39.25,127.95l-218.4,71.95
								l-34.03-120.46c-12.34-43.68-6.49-90.48,16.21-129.79L1714.55,1333.53z" class="colorffcc3d svgShape"></path>
                </g>
                <g fill="#000000" class="color000 svgShape">
                    <path fill="#030047" d="M1706.07,1654.28c-0.6,0-1.19-0.14-1.73-0.43c-0.89-0.47-1.54-1.28-1.81-2.25l-34.03-120.46
								c-0.55-1.95,0.58-3.99,2.54-4.54c1.95-0.56,3.99,0.58,4.54,2.54l32.99,116.77l211.33-69.62l-38.19-124.51
								c-0.6-1.94,0.5-4,2.44-4.59c1.94-0.6,4,0.49,4.6,2.44l39.25,127.95c0.59,1.91-0.46,3.95-2.37,4.57l-218.4,71.95
								C1706.84,1654.21,1706.46,1654.28,1706.07,1654.28z" class="color030047 svgShape"></path>
                </g>
            </g>
            <g fill="#000000" class="color000 svgShape">
                <line x1="1763.86" x2="1805.92" y1="1837.09" y2="1849.58" fill="#fff"></line>
                <path fill="#030047" d="M1805.92,1853.26c-0.35,0-0.7-0.05-1.05-0.15l-42.06-12.49c-1.95-0.57-3.06-2.62-2.48-4.57
							c0.58-1.94,2.63-3.06,4.57-2.48l42.06,12.49c1.95,0.57,3.06,2.62,2.48,4.57C1808.97,1852.22,1807.51,1853.26,1805.92,1853.26z
							" class="color030047 svgShape"></path>
            </g>
            <g opacity=".4" fill="#000000" class="color000 svgShape">
                <path fill="#ffffff" d="M1841.06,1464.39c-0.79,0-1.59-0.25-2.27-0.79c-1.6-1.25-1.88-3.56-0.63-5.16
							c5.27-6.72,6.91-14.69,3.82-18.55c-3.09-3.85-11.19-3.95-18.86-0.23c-1.38,0.67-2.77,1.45-4.15,2.23
							c-3.55,1.99-7.21,4.04-11.07,4.62c-6.19,0.94-11.48-2.49-13.46-8.69c-0.69-2.17-0.99-4.41-1.27-6.58
							c-0.26-2-0.51-3.89-1.04-5.47c-0.87-2.59-2.76-4.52-5.62-5.76c-5.36-2.31-12.97-1.68-20.34,1.7
							c-1.85,0.85-4.03,0.04-4.88-1.81c-0.85-1.85-0.03-4.03,1.81-4.88c9.24-4.23,19.08-4.9,26.33-1.76
							c4.79,2.07,8.13,5.58,9.67,10.16c0.76,2.26,1.07,4.6,1.36,6.86c0.25,1.93,0.49,3.75,0.98,5.29c0.9,2.82,2.72,4.09,5.37,3.65
							c2.52-0.37,5.59-2.09,8.55-3.76c1.51-0.85,3.03-1.7,4.54-2.43c11.02-5.35,22.46-4.43,27.81,2.24
							c5.35,6.66,3.8,18.05-3.76,27.7C1843.23,1463.91,1842.15,1464.39,1841.06,1464.39z" class="colorfff svgShape">
                </path>
            </g>
            <g opacity=".4" fill="#000000" class="color000 svgShape">
                <path fill="#ffffff" d="M1752.79,1534.81c-0.43,0-0.86-0.07-1.28-0.23c-7.07-2.62-12.59-7.46-14.78-12.96
							c-1.46-3.68-1.37-7.54,0.27-10.85c0.8-1.61,1.85-2.98,2.87-4.32c0.81-1.06,1.58-2.06,2.07-3c1.04-2.03-0.08-2.85-0.56-3.21
							c-1.3-0.97-3.63-1.62-5.87-2.25c-1.21-0.34-2.41-0.68-3.56-1.07c-8.72-3.01-14.32-9.68-13.6-16.23
							c0.71-6.54,7.6-11.89,16.76-13.01c2.01-0.23,3.85,1.18,4.1,3.2c0.25,2.02-1.19,3.85-3.21,4.1c-6.11,0.75-10.05,3.89-10.33,6.5
							c-0.28,2.6,2.89,6.48,8.69,8.48c1.01,0.35,2.08,0.65,3.14,0.94c2.89,0.81,5.87,1.64,8.26,3.41c4.03,2.98,5.1,7.88,2.73,12.49
							c-0.79,1.53-1.8,2.85-2.77,4.12c-0.84,1.1-1.64,2.13-2.12,3.1c-0.72,1.46-0.73,3.1-0.03,4.87c1.41,3.54,5.43,6.91,10.5,8.78
							c1.91,0.7,2.88,2.82,2.17,4.73C1755.69,1533.9,1754.28,1534.81,1752.79,1534.81z" class="colorfff svgShape"></path>
            </g>
            <g opacity=".4" fill="#000000" class="color000 svgShape">
                <path fill="#ffffff" d="M1801.6,1559.61c-3.3,0-6.92-0.84-10.47-2.55c-1.83-0.88-2.6-3.08-1.72-4.91
							c0.88-1.83,3.09-2.6,4.91-1.72c5.55,2.67,10.56,2.16,12.21,0.12c1.64-2.04,1.07-7.02-2.73-11.84c-0.66-0.84-1.4-1.67-2.14-2.5
							c-1.99-2.24-4.04-4.55-5.1-7.32c-1.78-4.68-0.03-9.39,4.45-11.99c1.49-0.86,3.05-1.42,4.56-1.96c1.3-0.46,2.53-0.91,3.46-1.47
							c1.39-0.84,2.29-2.21,2.65-4.08c0.73-3.74-0.84-8.75-4.09-13.06c-1.22-1.62-0.9-3.93,0.73-5.15c1.62-1.22,3.93-0.89,5.15,0.73
							c4.53,6.02,6.56,13.09,5.43,18.9c-0.76,3.89-2.92,7.08-6.09,8.99c-1.55,0.92-3.18,1.51-4.75,2.08
							c-1.26,0.45-2.45,0.88-3.37,1.41c-1.97,1.14-1.47,2.45-1.26,3c0.57,1.51,2.17,3.31,3.72,5.05c0.84,0.94,1.67,1.89,2.42,2.84
							c5.71,7.24,6.81,15.88,2.67,21.01C1809.89,1558.1,1806.03,1559.61,1801.6,1559.61z" class="colorfff svgShape">
                </path>
            </g>
            <g fill="#000000" class="color000 svgShape">
                <path fill="#030047" d="M2109.89,1236.8h-322.51c-31.66,0-57.32-25.66-57.32-57.32V989.59c0-31.66,25.66-57.32,57.32-57.32h322.51
						c31.66,0,57.32,25.66,57.32,57.32v189.89C2167.21,1211.14,2141.55,1236.8,2109.89,1236.8z"
                    class="color030047 svgShape"></path>
            </g>
            <g fill="#000000" class="color000 svgShape">
                <path fill="#ffffff"
                    d="M1869.88 1055.07c-.75 2.75-1.13 5.14-1.13 7.18 0 1.05-.11 2.68-.31 4.89-.21 2.2-.31 3.83-.31 4.89 0 3.58-.19 8.89-.57 15.94-.37 7.05-.56 12.36-.56 15.94 0 2.75.21 6.86.62 12.33.41 5.47.62 9.57.62 12.32 0 2.07-.73 3.82-2.19 5.25-1.47 1.43-3.29 2.15-5.46 2.15-2.21 0-4.13-.7-5.74-2.11s-2.42-3.12-2.42-5.15c0-2.74-.12-6.85-.36-12.33-.25-5.47-.37-9.58-.37-12.32 0-2.14.04-4.03.11-5.69-5.89.26-13.17 1.18-21.84 2.76-7.2 1.31-14.41 2.64-21.61 3.99-.08 2.38-.34 6.36-.79 11.93-.37 4.9-.56 8.92-.56 12.04 0 1.93-.73 3.55-2.2 4.89-1.46 1.33-3.28 2-5.46 2-2.17 0-3.99-.7-5.46-2.09-1.46-1.39-2.19-3.09-2.19-5.11 0-3.7.33-9.23.99-16.59.66-7.36.98-12.89.98-16.6 0-4.68.11-11.75.34-21.18.23-9.43.34-16.49.34-21.18 0-2.02.73-3.72 2.2-5.11 1.46-1.39 3.28-2.09 5.46-2.09 2.17 0 3.99.71 5.46 2.14 1.46 1.42 2.19 3.17 2.19 5.23 0 2.85-.11 7.14-.31 12.87-.21 5.72-.31 10.01-.31 12.86 0 .94-.13 2.74-.4 5.4-.23 2.48-.32 4.37-.28 5.69l21.61-4.05c8.44-1.5 15.72-2.37 21.84-2.59.15-2.54.39-9.36.73-20.48.08-2.92.96-6.28 2.65-10.07 2.1-4.67 4.48-7 7.15-7 1.99 0 3.75.66 5.29 1.98 1.65 1.43 2.48 3.22 2.48 5.37C1870.11 1053.94 1870.03 1054.51 1869.88 1055.07zM1946.88 1066.01c-2.93 0-7.49-.21-13.68-.62-5.96-.42-10.52-.6-13.67-.57.15 4.28.66 11.9 1.52 22.85.79 9.68 1.18 17.34 1.18 22.97 0 1.27.13 3.17.39 5.69.26 2.51.39 4.41.39 5.68 0 2.82-.6 5.35-1.8 7.6-1.54 2.89-3.73 4.33-6.59 4.33-2.06 0-3.88-.66-5.46-1.97-1.76-1.46-2.64-3.3-2.64-5.51 0-.53.1-1.32.28-2.39.19-1.07.28-1.88.28-2.45 0-1.72-.12-4.33-.37-7.82-.24-3.49-.36-6.12-.36-7.88 0-5.03-.39-11.84-1.18-20.43-.9-9.87-1.43-16.68-1.58-20.43h-2.93c-8.37 0-15.01-.6-19.93-1.8-4.17-1.02-6.25-3.47-6.25-7.37 0-1.92.68-3.64 2.03-5.18 1.58-1.83 3.64-2.66 6.19-2.48 1.31.08 4.3.4 8.95.96 3.71.41 6.72.62 9 .62 2.29 0 5.71-.03 10.27-.11 4.56-.08 7.98-.11 10.27-.11 2.85 0 7.13.2 12.84.59 5.7.39 9.98.59 12.83.59 2.25 0 4.14.73 5.66 2.19 1.52 1.47 2.28 3.27 2.28 5.41 0 2.14-.76 3.95-2.28 5.43C1951.02 1065.27 1949.13 1066.01 1946.88 1066.01zM1983.92 1089.03c-1.69 6.08-4.05 15.26-7.09 27.53-.71 4.24-1.41 8.46-2.08 12.66-1.54 5.33-4.37 7.99-8.5 7.99-2.59 0-4.64-.88-6.14-2.64-1.28-1.5-1.92-3.28-1.92-5.35 0-6.08 1.29-13.49 3.88-22.23 3.87-13.1 5.95-20.36 6.25-21.78 1.09-5.78 2.2-11.56 3.32-17.33 1.69-7.96 3.52-13.26 5.48-15.9 1.97-2.64 4.46-3.97 7.46-3.97 3.41 0 5.92 1.73 7.54 5.18 1.5 3.27 3.11 9.95 4.84 20.04 1.65 9.8 4.11 20.34 7.37 31.63 4.28-11.14 8.26-23.37 11.94-36.7l3.15-12.94c2.03-5.37 5.16-8.05 9.4-8.05 4.09 0 7.13 3.11 9.12 9.34.82 2.51 1.71 7.2 2.64 14.07 2.17 15.98 4.91 29.68 8.22 41.09 3.34 11.6 5.01 17.9 5.01 18.91 0 2.21-.88 4.07-2.65 5.57-1.65 1.35-3.51 2.03-5.57 2.03-4.09 0-7.13-2.93-9.12-8.78l-3.15-13.62c-1.8-6.75-3.75-16.45-5.85-29.1-1.69 5.02-4.48 12.93-8.39 23.7l-3.38 10.36c-1.39 4.09-2.84 7.45-4.33 10.08-1.99 3.49-4.77 5.24-8.33 5.24-3.53 0-6.23-2.08-8.1-6.25l-3.15-10.47C1988.88 1109.71 1986.25 1099.61 1983.92 1089.03zM2114.56 1131.36c-4.43 1.95-11.28 3.7-20.54 5.24-8.48 1.43-15.44 2.14-20.88 2.14-9.2 0-13.79-4.04-13.79-12.1 0 .64.37-5.31 1.13-17.84.97-16.29 1.46-34.41 1.46-54.37 0-2.14.74-3.96 2.23-5.46 1.48-1.5 3.35-2.25 5.6-2.25s4.13.75 5.63 2.25c1.5 1.5 2.25 3.32 2.25 5.46 0 20-.51 38.42-1.52 55.27-.34 3-.69 7.6-1.07 13.79 8.89-.15 20.3-2.33 34.22-6.53.86-.26 1.69-.39 2.48-.39 2.37 0 4.28.86 5.74 2.59 1.31 1.54 1.97 3.27 1.97 5.18C2119.45 1127.55 2117.83 1129.9 2114.56 1131.36z"
                    class="colorfff svgShape"></path>
            </g>
            <g fill="#000000" class="color000 svgShape">
                <path fill="#ffcc3d" d="M1595.77,687.15h-322.7c-6.45,0-11.69-5.23-11.69-11.69V457.76c0-6.45,5.23-11.69,11.69-11.69h322.7
						c6.45,0,11.69,5.23,11.69,11.69v217.71C1607.46,681.92,1602.23,687.15,1595.77,687.15z"
                    class="colorffcc3d svgShape"></path>
            </g>
            <g fill="#000000" class="color000 svgShape">
                <path fill="#ffffff"
                    d="M1343.66 581.13c-.72 0-2.52-.15-5.37-.45-.26 5.97-.39 15.79-.39 29.44 0 2.26-.79 4.21-2.37 5.82-1.58 1.62-3.58 2.43-6.02 2.43s-4.45-.81-6.05-2.43c-1.6-1.62-2.4-3.56-2.4-5.82v-17.86c0-6.61.43-16.41 1.28-29.38.81-13.19 1.24-23.02 1.28-29.51.04-11.09 3.16-16.41 9.34-15.94 1.45-.39 3.46-.68 6.02-.87 2.56-.19 5.67-.29 9.34-.29 8.36 0 16.21 2.71 23.56 8.13 8.15 6.06 12.22 13.44 12.22 22.15 0 10.93-4.33 19.61-12.99 26.05C1363.44 578.29 1354.29 581.13 1343.66 581.13zM1346.86 532.8c-1.36 0-2.57.01-3.62.03-1.04.02-1.93.08-2.65.16 0 2.01-.02 5.01-.07 9.02-.09 4.74-.49 12.12-1.22 22.15 2.18.34 3.63.51 4.35.51 6.66 0 12.19-1.58 16.58-4.74 4.69-3.37 7.04-7.83 7.04-13.38 0-3.63-2.2-6.85-6.59-9.67C1356.46 534.17 1351.86 532.8 1346.86 532.8zM1483.14 527.66c-.86 3.13-1.28 5.85-1.28 8.16 0 1.2-.12 3.06-.35 5.57-.23 2.51-.35 4.36-.35 5.56 0 4.07-.22 10.11-.64 18.13-.43 8.01-.64 14.06-.64 18.13 0 3.13.23 7.8.7 14.01.47 6.21.7 10.89.7 14.01 0 2.36-.83 4.35-2.5 5.98-1.66 1.63-3.74 2.44-6.21 2.44-2.52 0-4.69-.8-6.53-2.4s-2.75-3.55-2.75-5.86c0-3.11-.14-7.78-.42-14.01s-.42-10.9-.42-14.02c0-2.43.04-4.59.13-6.47-6.7.3-14.98 1.35-24.84 3.14-8.2 1.49-16.39 3.01-24.58 4.55-.09 2.71-.38 7.23-.9 13.56-.43 5.58-.64 10.14-.64 13.68 0 2.19-.83 4.04-2.5 5.56-1.66 1.51-3.73 2.27-6.21 2.27-2.48 0-4.55-.79-6.21-2.37-1.67-1.59-2.5-3.52-2.5-5.81 0-4.21.37-10.49 1.12-18.87.74-8.37 1.12-14.66 1.12-18.87 0-5.33.13-13.36.39-24.09.25-10.72.38-18.76.38-24.09 0-2.29.83-4.23 2.5-5.81 1.66-1.58 3.73-2.38 6.21-2.38s4.55.81 6.21 2.43c1.66 1.62 2.5 3.61 2.5 5.95 0 3.24-.12 8.12-.35 14.62-.23 6.51-.35 11.39-.35 14.63 0 1.07-.15 3.11-.45 6.15-.25 2.82-.36 4.97-.32 6.47l24.58-4.61c9.6-1.71 17.88-2.69 24.84-2.94.17-2.89.45-10.65.83-23.29.09-3.32 1.09-7.14 3.01-11.45 2.39-5.3 5.1-7.96 8.13-7.96 2.26 0 4.27.75 6.02 2.25 1.88 1.63 2.82 3.66 2.82 6.11C1483.39 526.37 1483.31 527.02 1483.14 527.66zM1514.18 581.13c-.72 0-2.52-.15-5.37-.45-.26 5.97-.39 15.79-.39 29.44 0 2.26-.79 4.21-2.37 5.82-1.58 1.62-3.58 2.43-6.02 2.43-2.43 0-4.45-.81-6.05-2.43-1.6-1.62-2.4-3.56-2.4-5.82v-17.86c0-6.61.43-16.41 1.28-29.38.81-13.19 1.24-23.02 1.28-29.51.04-11.09 3.16-16.41 9.34-15.94 1.45-.39 3.46-.68 6.02-.87 2.56-.19 5.67-.29 9.34-.29 8.36 0 16.21 2.71 23.56 8.13 8.15 6.06 12.22 13.44 12.22 22.15 0 10.93-4.33 19.61-12.99 26.05C1533.96 578.29 1524.81 581.13 1514.18 581.13zM1517.38 532.8c-1.37 0-2.57.01-3.62.03-1.04.02-1.93.08-2.65.16 0 2.01-.02 5.01-.07 9.02-.09 4.74-.49 12.12-1.22 22.15 2.18.34 3.63.51 4.35.51 6.66 0 12.19-1.58 16.58-4.74 4.69-3.37 7.04-7.83 7.04-13.38 0-3.63-2.2-6.85-6.59-9.67C1526.98 534.17 1522.38 532.8 1517.38 532.8z"
                    class="colorfff svgShape"></path>
            </g>
            <g fill="#000000" class="color000 svgShape">
                <path fill="#605efd" d="M523.84,1832.05H261.69c-6.45,0-11.69-5.23-11.69-11.69v-231.51c0-6.45,5.23-11.69,11.69-11.69h262.15
						c6.45,0,11.69,5.23,11.69,11.69v231.51C535.52,1826.82,530.29,1832.05,523.84,1832.05z"
                    class="color605efd svgShape"></path>
            </g>
            <g fill="#000000" class="color000 svgShape">
                <path fill="#ffffff"
                    d="M380 1669.76c-.79 0-2.04-.08-3.75-.23-1.71-.15-3.09-.23-4.14-.23h-5.13c-.04-.75-.06.81-.06 4.67 0 31.4-2.22 54.27-6.64 68.61-3.25 10.57-9.14 15.85-17.7 15.85-8.15 0-16.22-2.81-24.2-8.42-9.04-6.27-13.55-13.64-13.55-22.1 0-6.84 3.09-10.26 9.27-10.26 6.18 0 9.27 3.38 9.27 10.13 0 2.59 2.23 5.36 6.68 8.32s8.63 4.44 12.53 4.44c1.58 0 2.72-2.92 3.42-8.75.17-1.4.66-8.22 1.45-20.46.66-10 .99-22.45.99-37.36 0-.61-.07-2.04-.2-4.28l-1.51.07c-1.93.09-4.52.07-7.76-.07-3.9-.17-6.49-.26-7.76-.26-2.59 0-4.78-.79-6.58-2.37-1.93-1.71-2.89-3.92-2.89-6.64 0-5.96 3.92-8.95 11.77-8.95 1.49 0 3.71.06 6.64.16 2.94.11 5.13.17 6.58.17 2.76 0 6.89-.15 12.4-.46 5.5-.31 9.64-.46 12.4-.46 11.75 0 17.63 3.27 17.63 9.8 0 2.28-.79 4.32-2.37 6.12C384.98 1668.77 382.72 1669.76 380 1669.76zM428.42 1754.55c-11.14 0-19.91-2.48-26.32-7.43-5.39-4.12-8.09-8.88-8.09-14.27 0-2.76.83-5.05 2.5-6.87s3.97-2.73 6.91-2.73c3.95 0 6.84 2.02 8.68 6.05 2.5 5.4 8.16 8.09 16.97 8.09 7.54 0 14.84-1.65 21.9-4.93 7.32-3.38 10.99-7.08 10.99-11.12 0-5.53-2.28-9.17-6.84-10.92-3.24-1.27-9.76-2.02-19.53-2.24-7.59-.17-14.39-1.6-20.39-4.28-8.11-3.64-12.1-8.86-11.97-15.65.13-8.55 4.69-16.39 13.68-23.52 8.99-7.12 18.9-10.69 29.73-10.69 4.3 0 9.6.99 15.92 2.96 7.85 2.46 11.77 5.28 11.77 8.48 0 2.28-.79 4.3-2.37 6.05-1.75 1.97-4.01 2.96-6.78 2.96-2.06 0-5.14-.44-9.24-1.32-4.1-.88-7.2-1.32-9.31-1.32-5.66.05-11.03 1.41-16.12 4.08-5.26 2.72-7.89 5.68-7.89 8.88 0 1.67.8 3.04 2.4 4.11 1.6 1.08 4 1.83 7.2 2.27 5.61.31 11.2.61 16.77.92 9.74.75 17.43 3.49 23.09 8.22 6.23 5.26 9.34 12.54 9.34 21.84 0 11.31-6.45 19.89-19.34 25.72C452.27 1752.34 441.05 1754.55 428.42 1754.55z"
                    class="colorfff svgShape"></path>
            </g>
            <g fill="#000000" class="color000 svgShape">
                <path fill="#605efd" d="M2249.45,1661.07l0.55-49.1l-25.59-0.29c-2.91-14.63-8.53-28.3-16.27-40.5l18.3-17.92l-34.34-35.11
							l-18.3,17.92c-12.02-8.04-25.56-13.94-40.12-17.17l0.28-25.59l-49.13-0.55l-0.28,25.59c-14.63,2.91-28.3,8.51-40.5,16.28
							l-17.9-18.33l-35.11,34.34l17.9,18.33c-8.01,12.02-13.94,25.56-17.17,40.12l-25.59-0.29l-0.55,49.1l25.59,0.29
							c2.91,14.66,8.53,28.32,16.27,40.5l-18.3,17.92l34.34,35.11l18.3-17.92c12.02,8.04,25.56,13.94,40.12,17.17l-0.29,25.61
							l49.13,0.55l0.29-25.61c14.63-2.91,28.3-8.51,40.5-16.27l17.9,18.33l35.11-34.34l-17.9-18.33c8.01-12,13.94-25.54,17.17-40.12
							L2249.45,1661.07z M2111.98,1694.25c-36.65,2.49-66.65-28.17-63.36-64.77c2.58-28.79,26.19-51.89,55.04-53.82
							c36.67-2.47,66.65,28.21,63.35,64.79C2164.4,1669.21,2140.81,1692.29,2111.98,1694.25z"
                    class="color605efd svgShape"></path>
            </g>
            <g fill="#000000" class="color000 svgShape">
                <path fill="#ffcc3d" d="M2052.85,1396.27l-20.08,12.64c-9.42,5.88-21.81,3.06-27.7-6.3l-12.64-20.08
			c-5.89-9.36-3.07-21.74,6.28-27.63l20.09-12.7c9.36-5.89,21.74-3.07,27.7,6.3l12.62,20.14
			C2065.03,1377.99,2062.21,1390.37,2052.85,1396.27z" class="colorffcc3d svgShape"></path>
            </g>
            <g fill="#000000" class="color000 svgShape">
                <path fill="#ffcc3d" d="M1898.9,757.18l-13.36,8.41c-6.27,3.91-14.51,2.04-18.43-4.19l-8.41-13.36c-3.92-6.23-2.05-14.47,4.18-18.39
			l13.37-8.45c6.23-3.92,14.47-2.05,18.43,4.19l8.4,13.4C1907.01,745.02,1905.13,753.26,1898.9,757.18z"
                    class="colorffcc3d svgShape"></path>
            </g>
            <g fill="#000000" class="color000 svgShape">
                <path fill="#ffcc3d" d="M999.72,539.53l-13.36,8.41c-6.27,3.91-14.51,2.04-18.43-4.19l-8.41-13.36c-3.92-6.23-2.05-14.47,4.18-18.39
			l13.37-8.45c6.23-3.92,14.47-2.05,18.43,4.19l8.4,13.4C1007.82,527.37,1005.95,535.61,999.72,539.53z"
                    class="colorffcc3d svgShape"></path>
            </g>
            <g fill="#000000" class="color000 svgShape">
                <path fill="#ffcc3d" d="M501.29,1928.71l-13.36,8.41c-6.27,3.91-14.51,2.04-18.43-4.19l-8.41-13.36c-3.92-6.23-2.05-14.47,4.18-18.39
			l13.37-8.45c6.23-3.92,14.47-2.05,18.43,4.19l8.4,13.4C509.39,1916.55,507.52,1924.79,501.29,1928.71z"
                    class="colorffcc3d svgShape"></path>
            </g>
        </svg></g>
</svg>