<svg id="SvgjsSvg1084" width="550" height="550" xmlns="http://www.w3.org/2000/svg" version="1.1" xmlns:xlink="http://www.w3.org/1999/xlink" xmlns:svgjs="http://svgjs.com/svgjs"><defs id="SvgjsDefs1085"></defs><g id="SvgjsG1086"><svg xmlns="http://www.w3.org/2000/svg" enable-background="new 0 0 3000 3000" viewBox="0 0 3000 3000" width="550" height="550"><polygon fill="#ebf0f3" points="2975 624.01 2916.19 793.4 2852.06 774.83 2788.72 818.6 2790.21 749.93 2704.23 717.51" class="colorebf0f3 svgShape"></polygon><polygon fill="#d4d6d6" points="2975 624.01 2790.21 749.93 2788.72 818.6 2815.54 760.54" class="colord4d6d6 svgShape"></polygon><path fill="#d4d6d6" d="M2773.65 834.65c3.55-2.34 5.64-3.56 5.67-3.58l-2.42-4.13c0 0-2.17 1.27-5.88 3.71L2773.65 834.65zM2552.31 1071.19c1.07-4.53 2.31-9.11 3.69-13.61l4.58 1.4c-1.35 4.4-2.56 8.87-3.6 13.31L2552.31 1071.19zM2714.93 1045.9l1.58-4.52c4.23 1.48 8.61 2.45 13.01 2.88l-.46 4.77C2724.28 1048.56 2719.52 1047.51 2714.93 1045.9zM2742.84 1043.9c4.37-.67 8.68-1.89 12.82-3.62l1.85 4.42c-4.5 1.89-9.19 3.21-13.95 3.94L2742.84 1043.9zM2560.56 1044.24c1.67-4.41 3.49-8.79 5.42-13.02l4.35 1.98c-1.88 4.14-3.67 8.42-5.3 12.73L2560.56 1044.24zM2690.73 1030.43l3.43-3.34c3.12 3.2 6.6 6.04 10.36 8.44l-2.59 4.03C2697.87 1036.96 2694.1 1033.88 2690.73 1030.43zM2767.05 1033.6c3.47-2.82 6.29-6.15 8.39-9.88l4.18 2.35c-2.4 4.26-5.61 8.04-9.54 11.24L2767.05 1033.6zM2572.3 1018.58c2-3.64 3.27-5.61 3.38-5.77 1.48-2.1 2.95-4.15 4.41-6.15l3.87 2.83c-1.45 1.98-2.9 4.01-4.31 6-.03.04-1.24 1.93-3.15 5.4L2572.3 1018.58zM2675.92 1005.8l4.56-1.45c1.35 4.24 3.21 8.34 5.51 12.17l-4.1 2.47C2679.4 1014.83 2677.39 1010.39 2675.92 1005.8zM2779.69 1011.39c.45-2.65.67-5.51.68-8.48v-.67c-.02-1.39-.08-2.76-.2-4.14l4.77-.41c.13 1.49.2 2.99.22 4.48v.74c0 3.24-.25 6.36-.74 9.27L2779.69 1011.39zM2588.57 995.49c2.92-3.72 5.92-7.37 8.91-10.85l3.63 3.12c-2.94 3.43-5.89 7.03-8.78 10.69L2588.57 995.49zM2672.51 979.57c0-.7 0-1.41.02-2.11l4.79.09c-.01.66-.02 1.33-.02 2.01 0 3.85.19 7.76.58 11.63l-4.76.48C2672.72 987.64 2672.51 983.57 2672.51 979.57zM2771.86 972.87l4.11-2.46c2.51 4.18 4.53 8.59 6.03 13.11l-4.54 1.51C2776.07 980.84 2774.18 976.75 2771.86 972.87zM2606.87 974.19c3.28-3.48 6.63-6.83 9.94-9.96l3.29 3.48c-3.25 3.06-6.53 6.35-9.75 9.76L2606.87 974.19zM2673.61 963.3c.62-4.65 1.53-9.33 2.69-13.94l4.64 1.17c-1.11 4.43-1.98 8.94-2.59 13.41L2673.61 963.3zM2762.63 960.95c-2.82-2.87-5.77-5.61-8.78-8.14l3.08-3.67c3.13 2.63 6.2 5.47 9.13 8.46.41.43.83.86 1.23 1.29l-3.5 3.27C2763.4 961.75 2763.02 961.34 2762.63 960.95zM2627.38 954.91c3.73-3.07 7.52-5.94 11.26-8.53l2.73 3.94c-3.63 2.51-7.31 5.3-10.94 8.29L2627.38 954.91zM2731 938.1l2.01-4.35c4.22 1.95 8.41 4.27 12.48 6.91l-2.6 4.02C2739.01 942.17 2735.01 939.95 2731 938.1zM2650.66 938.88c4.26-2.36 8.57-4.43 12.81-6.15l1.8 4.44c-4.07 1.65-8.2 3.64-12.3 5.9L2650.66 938.88zM2680.48 935.82c.44-1.23.91-2.46 1.4-3.69-1.24.25-2.47.52-3.7.83l-1.15-4.65c2.34-.58 4.7-1.06 7.06-1.44.6-1.37 1.23-2.74 1.88-4.1l4.32 2.06c-.21.44-.41.88-.62 1.31.5-.05.99-.09 1.49-.13l.37 4.77c-1.36.11-2.73.25-4.11.43-.87 2.09-1.69 4.17-2.45 6.25L2680.48 935.82zM2705.03 930.91l.47-4.77c4.72.47 9.46 1.36 14.09 2.65l-1.29 4.61C2713.94 932.18 2709.47 931.35 2705.03 930.91zM2692.59 910.28c2.33-3.98 4.89-7.98 7.6-11.9l3.93 2.73c-2.64 3.82-5.13 7.72-7.4 11.6L2692.59 910.28zM2708.61 887.06c2.87-3.59 5.93-7.21 9.12-10.74l3.55 3.21c-3.12 3.46-6.13 7.01-8.93 10.52L2708.61 887.06zM2727.44 866.13c3.29-3.27 6.73-6.52 10.23-9.66l3.2 3.57c-3.44 3.09-6.82 6.28-10.06 9.49L2727.44 866.13zM2748.37 847.33c3.63-2.96 7.38-5.86 11.12-8.62l2.85 3.85c-3.68 2.72-7.36 5.57-10.94 8.48L2748.37 847.33zM2553.29 1092.76c.28-2.26.6-4.5.96-6.69l-4.73-.76c-.36 2.25-.69 4.54-.98 6.86L2553.29 1092.76z" class="colord4d6d6 svgShape"></path><path fill="#333333" d="M705.62,2301.92L705.62,2301.92c17.25,13.32,42.04,10.14,55.36-7.11l17.89-23.16
			c7.81-10.11,5.94-24.64-4.17-32.45l-25.85-19.97c-10.11-7.81-24.64-5.94-32.45,4.17l-17.89,23.16
			C685.19,2263.8,688.37,2288.59,705.62,2301.92z" class="color333 svgShape"></path><path fill="#204f7f" d="M620.15,2175.7l104.5,80.71c35.29,27.27,76.99,40.45,118.35,40.45c58.02,0,115.41-25.94,153.6-75.39
					c240.26-306.92,392.13-676.95,430.36-1128.12c0.04-0.12,0.04-0.23,0.04-0.35c0.39-4.81,0.78-9.62,1.17-14.48
					c0.12-2.86,0.2-5.67,0.2-8.49c0-103.21-81.42-189.04-185.52-193.54l-131.92-5.71l-16.74,387.4l0,0
					c39.51,1.7,70.51,34.6,69.8,74.13c-3.67,202.52-62.5,383.85-204.77,533.18c-25.67,26.94-67.68,29.89-97.13,7.15l-4.9-3.78
					L620.15,2175.7z" class="color204f7f svgShape"></path><path fill="#0e4275" d="M821.14 2295.62c7.27.83 14.56 1.24 21.85 1.24 58.01 0 115.41-25.95 153.6-75.4 240.26-306.91 392.13-676.95 430.37-1128.11.02-.12.02-.24.02-.34.39-4.83.78-9.63 1.17-14.48.12-2.85.19-5.68.19-8.49 0-103.22-81.4-189.05-185.52-193.54l-131.92-5.73-.07 1.9 88.3 3.83c104.12 4.49 185.52 90.32 185.52 193.54 0 2.8-.07 5.63-.2 8.49-.39 4.85-.78 9.66-1.17 14.48 0 .1 0 .22-.02.34-38.24 451.17-190.1 821.21-430.37 1128.11C919.51 2264.68 871.47 2289.96 821.14 2295.62zM821.93 1821.22l65.21 50.36c6.43 4.97 7.62 14.21 2.65 20.64l-234.28 303.34c-4.97 6.43-14.21 7.62-20.64 2.65l-65.21-50.36c-6.43-4.97-7.62-14.21-2.65-20.64l234.28-303.34C806.26 1817.44 815.5 1816.25 821.93 1821.22z" class="color0e4275 svgShape"></path><path fill="#204f7f" d="M1426.99,1093c0.59-4.77,0.98-9.59,1.17-14.48C1427.77,1083.38,1427.38,1088.19,1426.99,1093z" class="color204f7f svgShape"></path><path fill="#0e4275" d="M1036.95,1269.41l82.32,3.56c8.12,0.35,14.98-5.95,15.34-14.06l16.55-382.92
					c0.35-8.12-5.95-14.98-14.06-15.34l-82.32-3.56c-8.12-0.35-14.98,5.95-15.34,14.07l-16.55,382.92
					C1022.54,1262.19,1028.83,1269.06,1036.95,1269.41z" class="color0e4275 svgShape"></path><g fill="#000000" class="color000 svgShape"><path fill="#333333" d="M25,2366.23h344.91c-24.58-13.42-41.29-39.51-41.29-69.44c0-43.59,35.46-79.05,79.05-79.05h20.7
					c43.59,0,79.05,35.46,79.05,79.19c0,29.72-16.48,55.66-40.79,69.16h97.29c65.72,0,125.66-33.33,160.34-89.15l8.28,5.15
					c-36.47,58.71-99.51,93.76-168.62,93.76H433.11c-1.57,0.09-3.15,0.14-4.74,0.14H25V2366.23z M497.67,2296.79
					c0-38.21-31.09-69.3-69.3-69.3h-20.7c-38.21,0-69.3,31.09-69.3,69.3s31.09,69.3,69.3,69.3h25.14
					C468.96,2363.8,497.67,2333.65,497.67,2296.79z" class="color333 svgShape"></path></g><g fill="#000000" class="color000 svgShape"><path fill="#f7c19b" d="M2049.67,1407.22c0,0,35.91-52.29,71.95-51.16c2.24,0.07,3.89,2.15,3.48,4.35l-0.02,0.08
			c-0.33,1.77-1.91,3.02-3.71,2.98c-4.97-0.1-14.71,0.78-20.42,8.45c-1.53,2.06-1.3,4.96,0.57,6.71l8.67,8.12
			c3.27,3.06,2.87,8.36-0.82,10.89l-32.72,22.5l-10.43,7.71L2049.67,1407.22z" class="colorf7c19b svgShape"></path><rect width="47.26" height="62.57" x="1770.67" y="2268.45" fill="#f7c19b" transform="translate(-4.095 3.2)" class="colorf7c19b svgShape"></rect><path fill="#37424c" d="M1823.61,2323.62l11.33,32.66c0.95,2.74,1.11,5.51,0.48,8.08l0,0c-1.59,6.49-8.01,10.81-16.18,10.88
					l-81.49,0.74c-6.97,0.06-14.14-1.17-21-3.62l0,0c-7.53-2.69-12.06-9.68-10.11-15.6l0,0c0.79-2.41,2.6-4.39,5.12-5.6l54.76-34.02
					c1.31-0.82,2.96-1.22,4.73-1.17l42.81,1.23C1818.32,2317.32,1822.37,2320.05,1823.61,2323.62z" class="color37424c svgShape"></path><rect width="47.26" height="62.57" x="1912.02" y="2218.95" fill="#f7c19b" transform="rotate(-52.663 1935.67 2250.198)" class="colorf7c19b svgShape"></rect><path fill="#37424c" d="M1972.46,2241.36l32.82,10.86c2.75,0.91,5.05,2.47,6.71,4.53l0,0c4.19,5.21,3.71,12.93-1.19,19.46
					l-48.96,65.15c-4.19,5.57-9.52,10.51-15.64,14.47l0,0c-6.72,4.34-15.01,3.69-18.54-1.46l0,0c-1.43-2.1-1.9-4.73-1.33-7.47
					l6.28-64.16c0.15-1.53,0.83-3.09,1.94-4.46l27-33.24C1964.25,2241.73,1968.87,2240.17,1972.46,2241.36z" class="color37424c svgShape"></path><path fill="#f7c19b" d="M1436.7,1229.54l32.43-1.5l0.02-0.13c0,0-0.05-0.03-0.02-0.08l-0.04-0.37c0,0-0.02-0.08-0.03-0.16l-0.06-0.45
			l-0.08-0.53c-0.02-0.29-0.11-0.69-0.15-1.06c-1.77-8.67-12.81-40.3-17.46-63.67c-1.88-9.36-2.7-17.36-1.54-22.08
			c4.76-19.28-6.77-21.14-6.77-21.14c-0.91-11.09-9.02-8.9-9.02-8.9s0.16-5.22-2.07-8.1c-0.02-0.08-0.02-0.08-0.07-0.11
			c-2.36-2.9-5.11-1.41-5.11-1.41s-0.12-0.14-0.12,0.41c-0.1-1.79-1.01-11.36-6.58-11.96c-0.39-0.04-0.73-0.05-1,0.05
			c-0.13-0.01-0.21,0-0.29,0.02c-1.16,0.3-1.58,1.27-1.57,2.66c-0.01,0.13-0.03,0.26-0.01,0.34c0.13,3.47,2.18,9.21,2.44,14.42
			c0.21,3.45,0.38,9.65,0.12,15.77c-0.4,8.6-1.6,17.16-4.75,17.97c-1.83,0.48-3.16-0.78-4.36-2.79c-2.27-4.01-4-10.8-7.71-12.34
			c-5.58-2.4-5.89-0.94-2.96,7.09c1.58,4.33,2.6,9.21,4.93,14.85c1.99,4.87,5.01,10.2,10.09,16.08c1.12,1.27,2.16,2.56,3.15,3.82
			c8.85,11,12.9,20.44,13.54,37.65C1432.35,1223.06,1436.7,1229.54,1436.7,1229.54z" class="colorf7c19b svgShape"></path><path fill="#333333" d="M1799.69,1237.36c-3.21,12.1-12.66,20.35-21.84,26.4c-0.9-5.61-2.5-9.46-4.9-10.35
			c-11.35-4.24-23.65,6.84-33.77-1.51c-10.14-8.35-25.13-2.58-25.13-2.58c0.42,18.46-4.02,10.56-6.04,15.66
			c-2.02,5.08,2.19,18.08-2.95,19.8c-5.12,1.73-8.32-12.25-13.63-12.89c-5.3-0.65-14.37,3.99-8.83,19.35
			c5.56,15.38,8.8,20.26,8.7,30.49c0,0-17.97-20.62-17.49-69.6c0,0-5.1-13.65,17.79-23.14c0,0-10.96-0.9-10.16-4.02
			c0.8-3.15,12.06-3.04,12.06-3.04s0.05-5.49,7.07,0.07c0,0,7.96-21.14,30.02-20.66c22.04,0.46,21.87-10.01,35.76-9.09
			c13.86,0.92,29.65,22.02,28.44,38.52c0,0,2.59-12.81,0.24-18.33C1795.01,1212.43,1806.23,1212.79,1799.69,1237.36z" class="color333 svgShape"></path><path fill="#f7c19b" d="M1777.87,1263.75c-0.9-5.65-2.57-9.45-4.93-10.39c-11.37-4.26-23.6,6.94-33.72-1.41
			c-10.25-8.39-25.16-2.59-25.16-2.59c0.39,18.42-3.96,10.48-6.01,15.7c-2.08,4.92,2.2,18.05-2.99,19.67
			c-5.11,1.79-8.25-12.22-13.65-12.91c-5.31-0.53-20.09,7.65-14.59,23.01c5.5,15.37,11.42,17.73,11.34,27.98
			c-0.15,5.02-1.36,62.98,7.05,69.76c8.36,6.91,49.84,8.39,54.43-1.46c4.68-9.68-0.95-25.8,1.7-34.05
			c1.69-5.68,0.35-15.33,10.46-18.33c7.09-2.11,12.23-8.39,13.83-15.61C1779.59,1305.16,1780.17,1278.14,1777.87,1263.75z" class="colorf7c19b svgShape"></path><path fill="#333333" d="M1842.42,2109.92l4.14-374.7l0.16-13.63l-138.93-27.18l-95.25,33.63l-0.32,3.19l-17.77,201.42
			c-2.07,23.27,5.82,46.39,21.76,63.53c42.08,45.43,86.16,89.99,132.71,133.59l12.75,164.67l65.76-0.08l6.22-88.87v-0.08
			c25.9,22.08,52.61,43.84,80.1,65.28l34.11-48.78L1842.42,2109.92z M1713.69,1944.13c-1.2-2.63-1.51-5.58-0.96-8.37l12.27-73.09
			l5.82,119.88L1713.69,1944.13z" class="color333 svgShape"></path><path fill="#2b91cc" d="M1840.17,1492.92l8.63,157.02l1.74,30.18l1.89,35.18c0.42,7.31-1.74,14.24-5.87,19.92
			c-3.52,4.77-8.37,8.52-14.2,10.6c-86.8,31.77-159.89,31.47-215.45-10.15c-1.74-1.33-3.33-2.77-4.7-4.43
			c-4.92-5.76-7.58-13.18-7.42-20.9l7.04-231.62l-152.89-109.68c-9.51-6.85-15.87-17.31-17.46-28.86l-23.67-170.65h39.76
			l35.71,144.52l87.37,51.81l107.74-9.43c23.03,26.74,30.6,27.76,63.55-2.2c0,0,72.33-16.74,130.73,78.36l46.66,50.07l133.77-98.16
			l26.22,32.18l-124.75,137.52c-14.65,16.15-39.67,17.23-55.65,2.39C1880.61,1530.26,1841.5,1493.96,1840.17,1492.92z" class="color2b91cc svgShape"></path></g><g fill="#000000" class="color000 svgShape"><path fill="#fad62d" d="M2553.34,1110.21l-200.74,53.5l-200.74-53.5L2321.22,959c17.48-17.09,45.29-17.09,62.76,0L2553.34,1110.21z" class="colorfad62d svgShape"></path><rect width="401.48" height="257.15" x="2151.86" y="1110.21" fill="#eec927" class="coloreec927 svgShape"></rect><path fill="#ecf0f1" d="M2525.96,1010.09v218.29h-346.72V944.39c0-8.57,6.95-15.52,15.53-15.52h250.07L2525.96,1010.09z" class="colorecf0f1 svgShape"></path><path fill="#e1e3e8" d="M2444.84,984.06v-55.19l81.12,81.23h-55.09C2456.49,1010.09,2444.84,998.43,2444.84,984.06z" class="colore1e3e8 svgShape"></path><path fill="#37424c" d="M2373.01,1051.18c-7.34,3.87-14.81,5.34-23.75,5.34c-21.88,0-40.43-16.01-40.43-41.63
				c0-27.48,19.08-51.23,48.7-51.23c23.21,0,38.82,16.28,38.82,38.56c0,20.01-11.21,31.75-23.75,31.75c-5.34,0-10.27-3.6-9.87-11.74
				h-0.53c-4.67,7.87-10.81,11.74-18.81,11.74c-7.74,0-14.41-6.27-14.41-16.81c0-16.54,13.07-31.62,31.62-31.62
				c5.74,0,10.81,1.2,14.28,2.8l-4.54,24.15c-2,10.14-0.4,14.81,4,14.94c6.8,0.13,14.41-8.94,14.41-24.42
				c0-19.35-11.61-33.22-32.29-33.22c-21.75,0-40.03,17.21-40.03,44.3c0,22.28,14.54,36.02,34.29,36.02c7.6,0,14.68-1.6,20.15-4.67
				L2373.01,1051.18z M2365.67,993.55c-1.33-0.4-3.6-0.93-6.67-0.93c-11.74,0-21.21,11.07-21.21,24.02c0,5.87,2.94,10.14,8.81,10.14
				c7.74,0,14.81-9.87,16.28-18.15L2365.67,993.55z" class="color37424c svgShape"></path><rect width="296.13" height="8.11" x="2204.54" y="1078.62" fill="#e1e3e8" class="colore1e3e8 svgShape"></rect><rect width="296.13" height="8.11" x="2204.54" y="1122.63" fill="#e1e3e8" class="colore1e3e8 svgShape"></rect><rect width="296.13" height="8.11" x="2204.54" y="1166.64" fill="#e1e3e8" class="colore1e3e8 svgShape"></rect><polygon fill="#ffc42e" points="2553.34 1110.21 2553.34 1367.36 2352.6 1238.79" class="colorffc42e svgShape"></polygon><polygon fill="#ffc42e" points="2352.6 1238.79 2151.86 1367.36 2151.86 1110.21" class="colorffc42e svgShape"></polygon><path fill="#f7b612" d="M2553.34,1367.36h-401.48l155.47-140.11c25.73-23.18,64.81-23.18,90.53,0L2553.34,1367.36z" class="colorf7b612 svgShape"></path></g></svg></g></svg>