<!-- #030712 , #e6f5fd -->
<svg xmlns="http://www.w3.org/2000/svg" enable-background="new 0 0 5000 5000" viewBox="0 0 5000 5000" width="550" height="550"><path fill="#e6f5fd" d="M3377.68,605.53c-1362.55,0-3211.53,1233.41-3211.53,2595.95c0,417.24,103.57,810.27,286.41,1154.82h4361.41
	c182.83-344.55-954.31-1429.52-954.31-1846.75C3859.65,1147,4740.22,605.53,3377.68,605.53z" class="colore6f5fd svgShape"></path><path fill="#0f4480" d="M2066.83,2016.15c-253.8,0-459.56-205.75-459.56-459.55c0-253.8,205.75-459.55,459.56-459.55
	c253.8,0,459.56,205.75,459.56,459.55c0,99.79-31.81,192.15-85.84,267.5c-37.62,65.16,127,89.17,85.84,157.75
	C2526.38,1981.85,2214.3,2016.15,2066.83,2016.15z" class="color001e6c svgShape"></path><circle cx="2217.73" cy="1556.59" r="48.01" fill="#e6f5fd" enable-background="new" opacity=".7" class="colorfff svgShape"></circle><circle cx="2073.7" cy="1556.59" r="48.01" fill="#e6f5fd" enable-background="new" opacity=".7" class="colorfff svgShape"></circle><circle cx="1929.65" cy="1556.59" r="48.01" fill="#e6f5fd" enable-background="new" opacity=".7" class="colorfff svgShape"></circle><path fill="#0f4480" d="M1738.34,3020.77l-966.76,35.81c-94.31,3.5-165.08,87.49-152.51,181.03l129.74,965.8
	c10.66,79.35,78.37,138.57,158.43,138.57h1148.61h675.24c30.31,0,54.87-24.56,54.87-54.87s-24.56-54.88-54.87-54.88h-548.96
	c-80.35,0-148.22-59.64-158.53-139.32l-120.81-932.92C1892.17,3078.06,1820.89,3017.71,1738.34,3020.77z" class="color001e6c svgShape"></path><defs><filter id="a" width="1297.98" height="1431.59" x="796.04" y="2962.88" filterUnits="userSpaceOnUse"><feColorMatrix values="1 0 0 0 0  0 1 0 0 0  0 0 1 0 0  0 0 0 1 0"></feColorMatrix></filter></defs><mask id="b" width="1297.98" height="1431.59" x="796.04" y="2962.88" maskUnits="userSpaceOnUse"><path fill="#0f4480" d="M619.06,3237.6c-12.56-93.54,58.21-177.53,152.51-181.03l966.76-35.81c82.55-3.06,153.83,57.29,164.45,139.21
		l129.7,1001.62c12.38,95.63-62.1,180.38-158.53,180.38H907.23c-80.06,0-147.77-59.22-158.43-138.57L619.06,3237.6z" filter="url(#a)" class="color333 svgShape"></path></mask><g mask="url(#b)" fill="#000000" class="color000 svgShape"><path fill="#ffffff" d="M796.04,4394.47L1893.6,2962.88l200.42,1431.59H796.04z" enable-background="new" opacity=".1" class="colorfff svgShape"></path></g><ellipse cx="1268.47" cy="3788.44" fill="#405691" rx="90.67" ry="133.61" class="color405691 svgShape"></ellipse><path fill="#082032" d="M2781.19,3697.77c198.51-431.39,613.99-679.22,796.92-749.2l272-186.11
	c249.73-44.54,760.66-13.36,806.47,467.66c45.8,481.01-197.25,941.66-324.5,1111.86H2781.19l-467.66-209.96
	C2439.2,4046.12,2708.65,3839.02,2781.19,3697.77z" class="color082032 svgShape"></path><defs><filter id="c" width="1235.93" height="1374.02" x="2890.95" y="2800.63" filterUnits="userSpaceOnUse"><feColorMatrix values="1 0 0 0 0  0 1 0 0 0  0 0 1 0 0  0 0 0 1 0"></feColorMatrix></filter></defs><mask id="d" width="1235.93" height="1374.02" x="2890.95" y="2800.63" maskUnits="userSpaceOnUse"><path fill="#333333" d="M2781.19,3697.77c198.51-431.39,613.99-679.22,796.92-749.2l272-186.11
		c249.73-44.54,760.66-13.36,806.47,467.66c45.8,481.01-197.25,941.66-324.5,1111.86H2781.19l-467.66-209.96
		C2439.2,4046.12,2708.65,3839.02,2781.19,3697.77z" filter="url(#c)" class="color333 svgShape"></path></mask><g mask="url(#d)" fill="#000000" class="color000 svgShape"><path fill="#ffaa4c" d="M3105.68,3449.62c45.81-179.43,254.51-408.8,353.13-501.05l668.07-147.94
		c-15.9,122.48-76.35,376.99-38.17,601.27c38.17,224.28-66.81,491.52-167.01,668.08c-100.22,176.56-816.01,76.35-1030.74,76.35
		C3057.96,3998.4,3048.41,3673.91,3105.68,3449.62z" class="colorffaa4c svgShape"></path></g><path fill="#ffca9d" d="M2766.87 4337.21l47.71-176.56h-76.35c-84.31-39.77-171.8-124.08-415.16-124.08-186.11 0-390.35 223.33-176.56 219.51C2360.29 4252.27 2649.15 4308.58 2766.87 4337.21zM3535.15 2977.19c22.9-76.35 9.54-225.87 0-291.08 82.71-127.25 255.78-355.04 286.32-248.15 38.17 133.62 100.21 214.74 386.52 324.49C4088.7 2924.71 3840.56 3053.55 3535.15 2977.19z" class="colorffca9d svgShape"></path><defs><filter id="e" width="477.2" height="381.76" x="3473.11" y="2361.61" filterUnits="userSpaceOnUse"><feColorMatrix values="1 0 0 0 0  0 1 0 0 0  0 0 1 0 0  0 0 0 1 0"></feColorMatrix></filter></defs><mask id="f" width="477.2" height="381.76" x="3473.11" y="2361.61" maskUnits="userSpaceOnUse"><path fill="#ffbf88" d="M3535.15,2977.19c22.9-76.35,9.54-225.87,0-291.08c82.71-127.25,255.78-355.04,286.32-248.15
		c38.17,133.62,100.21,214.74,386.52,324.49C4088.7,2924.71,3840.56,3053.55,3535.15,2977.19z" filter="url(#e)" class="colorffbf88 svgShape"></path></mask><g mask="url(#f)" fill="#000000" class="color000 svgShape"><path fill="#eaa66c" d="M3473.11,2743.37c83.99-30.54,260.87-267.23,338.81-381.76l138.39,143.16
		C3850.1,2579.53,3614.37,2731.91,3473.11,2743.37z" class="coloreaa66c svgShape"></path></g><path fill="#ffca9d" d="M3449.27,2705.2c-171.8-34.36-186.11-411.98-171.8-596.5c66.81-38.17,237.65-106.9,386.54-76.36
	c148.89,30.54,186.1,235.42,186.1,334.04C3788.07,2493.64,3621.06,2739.56,3449.27,2705.2z" class="colorffca9d svgShape"></path><path fill="#0f4480" stroke="#735539" d="M3091.36,1951.22c53.44,263.42,413.57,211.56,586.95,152.7c-76.35,362.67,190.89,706.25,295.87,462.88
	c295.87-648.99,38.17-968.71-439.02-925.76C3282.23,1416.76,3024.55,1621.96,3091.36,1951.22z" class="color0f4480 svgShape colorStroke735539 svgStroke"></path></svg>